<svg width="537" height="363" viewBox="0 0 537 363" fill="none" xmlns="http://www.w3.org/2000/svg">
<g clip-path="url(#clip0)">
<path d="M535.529 262.221C535.529 283.744 417.347 363 269.751 363C122.154 363 5.97095 278.539 5.97095 257.016C5.97095 235.494 122.154 285.049 269.751 285.049C417.347 285.049 535.529 240.679 535.529 262.221Z" fill="#3F3D56"/>
<path d="M536.994 253.63C536.994 253.917 536.994 254.203 536.994 254.494C536.67 263.439 531.701 272.335 522.633 278.617C513.013 285.272 500.113 288.774 486.87 291.01C484.799 291.359 482.718 291.675 480.642 291.98C479.583 292.126 478.528 292.271 477.478 292.407C447.995 296.288 417.893 297.03 387.932 297.743C356.591 298.519 325.221 299.286 293.847 299.683L287.624 299.756C240.021 300.27 192.436 299.839 145.007 297.132C130.287 296.298 115.423 295.192 100.829 293.329C98.7485 293.073 96.6743 292.794 94.6065 292.49C75.2515 289.71 56.4723 285.446 39.3624 278.524C35.3235 276.908 31.3727 275.078 27.5269 273.043C16.78 267.324 7.717 260.092 3.23148 251.215C0.622202 246.01 -0.452095 240.168 0.134674 234.373C0.326584 232.266 0.687431 230.179 1.21372 228.13C2.56278 223.061 4.62028 218.21 7.32506 213.719C14.3122 201.873 24.8075 191.255 33.8559 180.132C53.1722 156.427 65.753 126.473 47.927 102.176C42.8125 95.1957 35.4189 89.0789 31.2527 81.7785C29.024 77.8349 27.6335 73.4715 27.1688 68.9629C26.9426 66.8901 26.8569 64.8044 26.9123 62.72C27.11 57.8526 27.717 53.0105 28.7269 48.2454C31.6301 33.344 37.0544 17.2783 53.8061 7.9843C65.2401 1.63954 79.8144 -0.329858 94.592 0.0436485C96.6662 0.0921558 98.7404 0.18917 100.815 0.334692C106.481 0.708199 112.113 1.397 117.552 2.27499C151.152 7.65445 182.164 18.8936 213.47 29.0413C237.306 36.7637 261.993 43.9865 287.61 47.4305C289.681 47.707 291.752 47.9641 293.832 48.1872C299.837 48.8469 305.895 49.2835 312.002 49.463C342.394 50.3361 377.853 43.7391 398.035 26.6063C417.53 10.0459 454.092 8.71192 480.628 18.6026L481.025 18.7529C483.021 19.5161 484.957 20.3375 486.831 21.2171C506.384 30.4335 519.483 46.2178 521.331 62.7346C521.563 64.786 521.618 66.8535 521.496 68.9144C521.498 68.9353 521.498 68.9565 521.496 68.9775C520.228 89.2972 503.66 106.362 486.836 123.456C484.755 125.566 482.67 127.676 480.608 129.801C475.15 135.418 469.861 141.079 465.274 146.905C463.18 149.545 461.253 152.316 459.507 155.199C457.901 157.859 456.53 160.654 455.408 163.552C454.225 166.553 453.464 169.703 453.148 172.914C452.677 177.516 453.516 182.158 455.568 186.302L455.611 186.399C460.102 195.325 469.605 201.65 480.608 207.257C482.636 208.295 484.721 209.304 486.836 210.304C498.768 215.95 511.625 221.194 521.399 228.164C524.034 230.001 526.493 232.08 528.744 234.373C529.661 235.324 530.527 236.323 531.338 237.366C534.907 241.886 536.893 247.459 536.99 253.223C536.994 253.368 536.994 253.499 536.994 253.63Z" fill="#F27C2E"/>
<path d="M536.994 253.63C536.994 253.917 536.994 254.203 536.994 254.494C536.67 263.439 531.701 272.335 522.633 278.617C513.013 285.272 500.113 288.774 486.87 291.01C484.799 291.359 482.718 291.675 480.642 291.98C479.583 292.126 478.528 292.271 477.478 292.407C447.995 296.288 417.893 297.03 387.932 297.743C356.591 298.519 325.221 299.286 293.847 299.683L287.624 299.756C240.021 300.27 192.436 299.839 145.007 297.132C130.287 296.298 115.423 295.192 100.829 293.329C98.7485 293.073 96.6743 292.794 94.6065 292.49C75.2515 289.71 56.4723 285.446 39.3624 278.524C35.3235 276.908 31.3727 275.078 27.5269 273.043C16.78 267.324 7.717 260.092 3.23148 251.215C0.622202 246.01 -0.452095 240.168 0.134674 234.373C0.326584 232.266 0.687431 230.179 1.21372 228.13C2.56278 223.061 4.62028 218.21 7.32506 213.719C14.3122 201.873 24.8075 191.255 33.8559 180.132C53.1722 156.427 65.753 126.473 47.927 102.176C42.8125 95.1957 35.4189 89.0789 31.2527 81.7785C29.024 77.8349 27.6335 73.4715 27.1688 68.9629C26.9426 66.8901 26.8569 64.8044 26.9123 62.72C27.11 57.8526 27.717 53.0105 28.7269 48.2454C31.6301 33.344 37.0544 17.2783 53.8061 7.9843C65.2401 1.63954 79.8144 -0.329858 94.592 0.0436485C96.6662 0.0921558 98.7404 0.18917 100.815 0.334692C106.481 0.708199 112.113 1.397 117.552 2.27499C151.152 7.65445 182.164 18.8936 213.47 29.0413C237.306 36.7637 261.993 43.9865 287.61 47.4305C289.681 47.707 291.752 47.9641 293.832 48.1872C299.837 48.8469 305.895 49.2835 312.002 49.463C342.394 50.3361 377.853 43.7391 398.035 26.6063C417.53 10.0459 454.092 8.71192 480.628 18.6026L481.025 18.7529C483.021 19.5161 484.957 20.3375 486.831 21.2171C506.384 30.4335 519.483 46.2178 521.331 62.7346C521.563 64.786 521.618 66.8535 521.496 68.9144C521.498 68.9353 521.498 68.9565 521.496 68.9775C520.228 89.2972 503.66 106.362 486.836 123.456C484.755 125.566 482.67 127.676 480.608 129.801C475.15 135.418 469.861 141.079 465.274 146.905C463.18 149.545 461.253 152.316 459.507 155.199C457.901 157.859 456.53 160.654 455.408 163.552C454.225 166.553 453.464 169.703 453.148 172.914C452.677 177.516 453.516 182.158 455.568 186.302L455.611 186.399C460.102 195.325 469.605 201.65 480.608 207.257C482.636 208.295 484.721 209.304 486.836 210.304C498.768 215.95 511.625 221.194 521.399 228.164C524.034 230.001 526.493 232.08 528.744 234.373C529.661 235.324 530.527 236.323 531.338 237.366C534.907 241.886 536.893 247.459 536.99 253.223C536.994 253.368 536.994 253.499 536.994 253.63Z" fill="url(#paint0_linear)"/>
<path d="M486.856 21.2171V123.451C484.775 125.566 482.69 127.676 480.629 129.801V18.6026L486.856 21.2171Z" fill="#3F3D56"/>
<path d="M521.521 68.9144C521.523 68.9354 521.523 68.9565 521.521 68.9775H27.1696C26.9437 66.9047 26.858 64.8189 26.9132 62.7346H521.356C521.588 64.786 521.643 66.8535 521.521 68.9144Z" fill="#3F3D56"/>
<path d="M116.769 36.6522C117.771 36.6522 118.583 35.8378 118.583 34.8331C118.583 33.8285 117.771 33.0141 116.769 33.0141C115.767 33.0141 114.954 33.8285 114.954 34.8331C114.954 35.8378 115.767 36.6522 116.769 36.6522Z" fill="#E7EFFD"/>
<path d="M58.6554 33.0093C59.6575 33.0093 60.4699 32.1949 60.4699 31.1902C60.4699 30.1856 59.6575 29.3712 58.6554 29.3712C57.6532 29.3712 56.8408 30.1856 56.8408 31.1902C56.8408 32.1949 57.6532 33.0093 58.6554 33.0093Z" fill="#E7EFFD"/>
<path d="M137.266 35.6141C137.696 35.6141 138.045 35.2645 138.045 34.8331C138.045 34.4018 137.696 34.0522 137.266 34.0522C136.835 34.0522 136.487 34.4018 136.487 34.8331C136.487 35.2645 136.835 35.6141 137.266 35.6141Z" fill="#E7EFFD"/>
<path d="M78.8911 33.7951C79.3214 33.7951 79.6701 33.4454 79.6701 33.0141C79.6701 32.5828 79.3214 32.2331 78.8911 32.2331C78.4608 32.2331 78.1121 32.5828 78.1121 33.0141C78.1121 33.4454 78.4608 33.7951 78.8911 33.7951Z" fill="#E7EFFD"/>
<path d="M78.1167 88.3416C78.5469 88.3416 78.8957 87.992 78.8957 87.5606C78.8957 87.1293 78.5469 86.7797 78.1167 86.7797C77.6864 86.7797 77.3376 87.1293 77.3376 87.5606C77.3376 87.992 77.6864 88.3416 78.1167 88.3416Z" fill="#E7EFFD"/>
<path d="M437.428 47.12C437.858 47.12 438.207 46.7704 438.207 46.3391C438.207 45.9078 437.858 45.5581 437.428 45.5581C436.998 45.5581 436.649 45.9078 436.649 46.3391C436.649 46.7704 436.998 47.12 437.428 47.12Z" fill="#E7EFFD"/>
<path d="M173.585 47.838C174.016 47.838 174.364 47.4883 174.364 47.057C174.364 46.6257 174.016 46.276 173.585 46.276C173.155 46.276 172.806 46.6257 172.806 47.057C172.806 47.4883 173.155 47.838 173.585 47.838Z" fill="#E7EFFD"/>
<path d="M399.033 46.276C399.463 46.276 399.812 45.9264 399.812 45.4951C399.812 45.0637 399.463 44.7141 399.033 44.7141C398.602 44.7141 398.254 45.0637 398.254 45.4951C398.254 45.9264 398.602 46.276 399.033 46.276Z" fill="#E7EFFD"/>
<path d="M497.1 48.6189C497.53 48.6189 497.879 48.2693 497.879 47.838C497.879 47.4066 497.53 47.057 497.1 47.057C496.669 47.057 496.321 47.4066 496.321 47.838C496.321 48.2693 496.669 48.6189 497.1 48.6189Z" fill="#E7EFFD"/>
<path d="M536.995 253.63C536.995 253.917 536.995 254.203 536.995 254.494C536.749 263.507 531.769 272.495 522.634 278.82C513.014 285.476 500.114 288.978 486.871 291.214C484.8 291.563 482.719 291.878 480.643 292.184C479.584 292.33 478.529 292.475 477.479 292.611C470.221 293.581 462.924 294.323 455.603 294.944C445.78 295.778 435.909 296.356 426.028 296.783C413.341 297.34 400.63 297.656 387.933 297.971C363.115 298.582 338.277 299.193 313.416 299.615L304.595 299.761L293.833 299.906L287.611 299.979C248.417 300.396 209.281 300.183 170.213 298.582C167.613 298.479 165.018 298.366 162.427 298.243C156.621 297.987 150.814 297.691 145.008 297.355C133.371 296.695 121.642 295.861 110.038 294.624C106.961 294.301 103.896 293.943 100.845 293.552C98.764 293.297 96.6897 293.017 94.622 292.713C92.3187 292.389 90.0252 292.037 87.7413 291.655C70.8056 288.881 54.4555 284.864 39.3779 278.743C35.3355 277.118 31.3801 275.284 27.5278 273.247V187.874C29.6762 185.376 31.8101 182.878 33.8618 180.35C36.3295 177.314 38.7005 174.185 40.8779 170.974H87.7171V142.039H170.218V205.652H304.595V155.204H459.628C458.054 157.779 456.696 160.48 455.569 163.281V163.552H455.39C454.207 166.553 453.446 169.703 453.13 172.914C452.658 177.516 453.497 182.158 455.549 186.302V186.506L455.593 186.603C460.083 195.528 469.587 201.854 480.59 207.461C482.617 208.499 484.703 209.508 486.817 210.507C498.629 216.095 511.355 221.295 521.09 228.164L521.381 228.368C523.944 230.15 526.342 232.16 528.547 234.373C528.619 234.441 528.682 234.509 528.745 234.577C529.662 235.528 530.527 236.527 531.339 237.57C534.864 242.036 536.847 247.529 536.99 253.223C536.995 253.368 536.995 253.499 536.995 253.63Z" fill="#F27C2E"/>
<path opacity="0.3" d="M536.995 253.63C536.995 253.917 536.995 254.203 536.995 254.494C536.749 263.507 531.769 272.495 522.634 278.82C513.014 285.476 500.114 288.978 486.871 291.214C484.8 291.563 482.719 291.878 480.643 292.184C479.584 292.33 478.529 292.475 477.479 292.611C470.221 293.581 462.924 294.323 455.603 294.944C445.78 295.778 435.909 296.356 426.028 296.783C413.341 297.34 400.63 297.656 387.933 297.971C363.115 298.582 338.277 299.193 313.416 299.615L304.595 299.761L293.833 299.906L287.611 299.979C248.417 300.396 209.281 300.183 170.213 298.582C167.613 298.479 165.018 298.366 162.427 298.243C156.621 297.987 150.814 297.691 145.008 297.355C133.371 296.695 121.642 295.861 110.038 294.624C106.961 294.301 103.896 293.943 100.845 293.552C98.764 293.297 96.6897 293.017 94.622 292.713C92.3187 292.389 90.0252 292.037 87.7413 291.655C70.8056 288.881 54.4555 284.864 39.3779 278.743C35.3355 277.118 31.3801 275.284 27.5278 273.247V187.874C29.6762 185.376 31.8101 182.878 33.8618 180.35C36.3295 177.314 38.7005 174.185 40.8779 170.974H87.7171V142.039H170.218V205.652H304.595V155.204H459.628C458.054 157.779 456.696 160.48 455.569 163.281V163.552H455.39C454.207 166.553 453.446 169.703 453.13 172.914C452.658 177.516 453.497 182.158 455.549 186.302V186.506L455.593 186.603C460.083 195.528 469.587 201.854 480.59 207.461C482.617 208.499 484.703 209.508 486.817 210.507C498.629 216.095 511.355 221.295 521.09 228.164L521.381 228.368C523.944 230.15 526.342 232.16 528.547 234.373C528.619 234.441 528.682 234.509 528.745 234.577C529.662 235.528 530.527 236.527 531.339 237.57C534.864 242.036 536.847 247.529 536.99 253.223C536.995 253.368 536.995 253.499 536.995 253.63Z" fill="black"/>
<path opacity="0.4" d="M56.7539 182.771H42.915V192.133H56.7539V182.771Z" fill="black"/>
<path opacity="0.4" d="M78.896 182.771H65.0571V192.133H78.896V182.771Z" fill="black"/>
<path opacity="0.4" d="M333.138 163.528H319.3V172.89H333.138V163.528Z" fill="black"/>
<path opacity="0.4" d="M370.498 163.528H356.66V172.89H370.498V163.528Z" fill="black"/>
<path opacity="0.4" d="M410.621 163.528H396.783V172.89H410.621V163.528Z" fill="black"/>
<path opacity="0.4" d="M333.138 192.138H319.3V201.5H333.138V192.138Z" fill="black"/>
<path opacity="0.4" d="M370.498 192.138H356.66V201.5H370.498V192.138Z" fill="black"/>
<path d="M410.621 192.138H396.783V201.5H410.621V192.138Z" fill="#F27C2E"/>
<path opacity="0.4" d="M333.138 220.742H319.3V230.104H333.138V220.742Z" fill="black"/>
<path opacity="0.4" d="M370.498 220.742H356.66V230.104H370.498V220.742Z" fill="black"/>
<path opacity="0.4" d="M410.621 220.742H396.783V230.104H410.621V220.742Z" fill="black"/>
<path opacity="0.4" d="M333.138 249.352H319.3V258.714H333.138V249.352Z" fill="black"/>
<path opacity="0.4" d="M370.498 249.352H356.66V258.714H370.498V249.352Z" fill="black"/>
<path opacity="0.4" d="M410.621 249.352H396.783V258.714H410.621V249.352Z" fill="black"/>
<path opacity="0.4" d="M333.138 277.962H319.3V287.324H333.138V277.962Z" fill="black"/>
<path opacity="0.4" d="M370.498 277.962H356.66V287.324H370.498V277.962Z" fill="black"/>
<path opacity="0.4" d="M410.621 277.962H396.783V287.324H410.621V277.962Z" fill="black"/>
<path opacity="0.4" d="M455.409 163.552C454.226 166.553 453.465 169.704 453.149 172.914H445.557V163.552H455.409Z" fill="black"/>
<path d="M459.396 192.138H445.557V201.5H459.396V192.138Z" fill="#F27C2E"/>
<path opacity="0.4" d="M459.396 220.742H445.557V230.104H459.396V220.742Z" fill="black"/>
<path opacity="0.4" d="M459.396 249.352H445.557V258.714H459.396V249.352Z" fill="black"/>
<path opacity="0.4" d="M459.396 277.962H445.557V287.324H459.396V277.962Z" fill="black"/>
<path opacity="0.4" d="M133.55 152.604H119.711V161.966H133.55V152.604Z" fill="black"/>
<path d="M133.55 173.593H119.711V182.955H133.55V173.593Z" fill="#F27C2E"/>
<path opacity="0.4" d="M133.55 194.578H119.711V203.939H133.55V194.578Z" fill="black"/>
<path opacity="0.4" d="M133.55 215.567H119.711V224.929H133.55V215.567Z" fill="black"/>
<path opacity="0.4" d="M133.55 236.551H119.711V245.913H133.55V236.551Z" fill="black"/>
<path opacity="0.4" d="M133.55 257.54H119.711V266.902H133.55V257.54Z" fill="black"/>
<path opacity="0.4" d="M133.55 278.524H119.711V287.886H133.55V278.524Z" fill="black"/>
<path opacity="0.4" d="M56.7539 207.238H42.915V216.6H56.7539V207.238Z" fill="black"/>
<path opacity="0.4" d="M78.896 207.238H65.0571V216.6H78.896V207.238Z" fill="black"/>
<path opacity="0.4" d="M56.7539 231.705H42.915V241.067H56.7539V231.705Z" fill="black"/>
<path opacity="0.4" d="M78.896 231.705H65.0571V241.067H78.896V231.705Z" fill="black"/>
<path opacity="0.4" d="M56.7539 256.172H42.915V265.534H56.7539V256.172Z" fill="black"/>
<path opacity="0.4" d="M78.896 256.172H65.0571V265.534H78.896V256.172Z" fill="black"/>
<path opacity="0.4" d="M267.07 216.561H197.886V224.929H267.07V216.561Z" fill="black"/>
<path opacity="0.4" d="M267.07 243.26H197.886V251.627H267.07V243.26Z" fill="black"/>
<path opacity="0.4" d="M267.07 269.963H197.886V278.33H267.07V269.963Z" fill="black"/>
<path d="M100.815 0.334699V293.319C98.7347 293.064 96.6605 292.784 94.5928 292.48V0.0436554C96.6686 0.0824613 98.7396 0.189177 100.815 0.334699Z" fill="#3F3D56"/>
<path d="M293.833 48.1775V299.693L287.611 299.766V47.4159C289.682 47.6973 291.756 47.9511 293.833 48.1775Z" fill="#3F3D56"/>
<path d="M528.745 234.373H0.135498C0.327408 232.266 0.688255 230.179 1.21454 228.13H521.419C524.051 229.976 526.504 232.066 528.745 234.373Z" fill="#3F3D56"/>
<path d="M480.629 207.238C482.656 208.276 484.741 209.285 486.856 210.284V291.01C484.785 291.359 482.704 291.675 480.629 291.98V207.238Z" fill="#3F3D56"/>
<path d="M163.226 111.475H162.035V110.281H161.822V111.475H160.632V111.688H161.822V112.881H162.035V111.688H163.226V111.475Z" fill="#E7EFFD"/>
<path d="M410.621 86.6729H409.431V85.4797H409.213V86.6729H408.028V86.8864H409.213V88.0797H409.431V86.8864H410.621V86.6729Z" fill="#E7EFFD"/>
<path d="M191.421 81.8465H190.231V80.6532H190.013V81.8465H188.828V82.0647H190.013V83.2532H190.231V82.0647H191.421V81.8465Z" fill="#E7EFFD"/>
<path d="M189.607 158.896C190.037 158.896 190.386 158.546 190.386 158.115C190.386 157.683 190.037 157.334 189.607 157.334C189.176 157.334 188.828 157.683 188.828 158.115C188.828 158.546 189.176 158.896 189.607 158.896Z" fill="#E7EFFD"/>
<path d="M367.271 89.1226C367.701 89.1226 368.05 88.7729 368.05 88.3416C368.05 87.9103 367.701 87.5606 367.271 87.5606C366.841 87.5606 366.492 87.9103 366.492 88.3416C366.492 88.7729 366.841 89.1226 367.271 89.1226Z" fill="#E7EFFD"/>
<path d="M445.557 126.109C445.987 126.109 446.336 125.76 446.336 125.328C446.336 124.897 445.987 124.548 445.557 124.548C445.127 124.548 444.778 124.897 444.778 125.328C444.778 125.76 445.127 126.109 445.557 126.109Z" fill="#E7EFFD"/>
<path d="M322.953 132.808C323.383 132.808 323.732 132.459 323.732 132.027C323.732 131.596 323.383 131.246 322.953 131.246C322.523 131.246 322.174 131.596 322.174 132.027C322.174 132.459 322.523 132.808 322.953 132.808Z" fill="#E7EFFD"/>
<path d="M346.126 263.477C346.126 263.477 329.524 267.504 322.953 275.037C320.751 277.554 317.485 279.368 314.113 280.664V269.298C317.911 262.905 321.738 255.794 321.738 255.794C321.913 255.445 323.296 250.541 323.296 250.541C326.413 248.086 323.122 239.51 323.122 239.51C323.122 239.51 325.029 234.082 323.988 233.029C322.948 231.977 323.814 229.178 324.68 227.951C325.546 226.723 325.372 225.147 325.372 224.099C325.372 223.051 323.988 221.47 321.738 220.597C319.488 219.724 321.913 218.322 323.296 217.968C324.68 217.614 325.029 214.291 323.471 212.54C321.913 210.789 323.645 209.741 324.506 207.815C325.367 205.889 321.724 206.239 321.724 206.239V188.534C321.724 188.534 320.684 182.756 319.648 172.599C318.613 162.441 314.63 161.394 314.63 161.394C312.497 160.73 310.416 159.909 308.403 158.939C306.283 157.943 304.085 157.124 301.832 156.49C301.832 156.49 297.162 156.49 293.354 155.316C289.546 154.142 287.572 154.059 287.572 154.059L286.948 153.749C282.265 151.362 278.555 147.418 276.452 142.592C276.346 142.35 276.249 142.107 276.152 141.874C277.187 140.738 278.112 139.507 278.915 138.197V138.168C278.915 138.348 278.915 138.527 278.915 138.707C278.915 138.78 278.915 138.857 278.915 138.93C278.915 139.362 278.915 139.793 278.915 140.225V140.269C281.674 135.384 289.677 134.268 290.436 128.69C290.471 128.436 290.489 128.18 290.49 127.924V127.89C290.49 127.705 290.49 127.516 290.49 127.327C290.388 125.77 289.856 124.218 289.754 122.646C289.72 122.196 289.72 121.743 289.754 121.293V121.322C290.112 116.99 293.369 113.221 294.859 109.015C295.26 107.884 295.522 106.708 295.638 105.513V105.479C295.677 105.12 295.701 104.757 295.711 104.393C295.711 104.305 295.711 104.213 295.711 104.126C295.711 103.874 295.711 103.641 295.711 103.369C295.665 101.132 295.163 98.927 294.235 96.8914C293.307 94.8558 291.973 93.0323 290.316 91.5334C287.557 89.1323 283.914 87.6237 282.003 84.4853C281.112 83.0301 280.677 81.3032 279.704 79.8965C277.875 77.2383 274.517 76.1566 271.338 75.7734C268.159 75.3901 264.893 75.5163 261.854 74.517C259.696 73.8088 257.741 72.5525 255.564 71.9219C253.191 71.2854 250.681 71.3919 248.371 72.2269C246.061 73.0619 244.061 74.5855 242.639 76.5931C241.493 78.2715 240.743 80.2797 239.194 81.5894C236.025 84.2767 230.649 83.1125 227.871 86.2073C226.347 87.9099 226.173 90.2285 226.357 92.5957C226.357 92.6248 226.357 92.6539 226.357 92.683C226.357 92.8625 226.391 93.0468 226.41 93.2312C226.41 93.3185 226.41 93.4058 226.41 93.4882C226.41 93.5707 226.41 93.6726 226.444 93.7647C226.541 94.6136 226.662 95.4576 226.768 96.2726C226.768 96.3987 226.797 96.52 226.812 96.6461L226.899 97.4076C226.899 97.592 226.928 97.7763 226.947 97.9606C226.967 98.1449 226.981 98.4457 226.996 98.6494C227.01 98.8532 226.996 99.0084 227.029 99.1927C227.34 105.657 225.973 112.092 223.062 117.868C220.444 123.015 216.554 127.759 215.876 133.507C215.771 134.449 215.745 135.398 215.799 136.344C215.799 136.456 215.799 136.568 215.799 136.679C215.799 136.791 215.828 137.019 215.842 137.189C215.857 137.358 215.881 137.581 215.905 137.775C215.905 137.887 215.934 137.999 215.949 138.11C215.983 138.367 216.021 138.624 216.065 138.886L216.094 139.051C216.781 142.971 218.339 146.812 219.167 150.771C219.477 152.23 219.684 153.71 219.786 155.199C219.784 155.209 219.784 155.219 219.786 155.228C219.815 155.713 219.839 156.174 219.854 156.65C219.854 157.29 219.854 157.935 219.854 158.59C218.54 159.096 217.193 159.511 215.823 159.832C213.404 160.181 206.305 166.487 206.823 168.078C207.341 169.669 203.649 180.69 203.547 181.025L197.741 221.286C197.741 221.286 194.658 224.264 195.621 226.19C196.584 228.116 195.432 231.443 195.432 231.443C195.432 231.443 190.226 233.718 191.382 235.12C192.539 236.522 192.011 239.146 191.218 240.897C190.424 242.648 189.123 245.801 191.218 246.325C193.313 246.849 191.576 253.684 191.576 253.684C191.576 253.684 198.878 252.84 198.35 257.186C198.176 258.568 203.455 262.371 205.657 263.895V284.821C202.7 283.991 199.226 282.914 197.01 281.876C192.515 279.776 167.261 275.75 161.726 287.833C156.19 299.916 169.337 316.025 172.623 317.777C172.623 317.777 175.739 320.226 176.431 321.453C177.123 322.681 181.1 323.03 181.1 323.03C181.1 323.03 185.252 324.97 186.287 326.003C187.052 326.78 193.376 328.793 200.871 330.369C200.871 330.369 194.818 344.339 204.694 343.19C214.57 342.04 219.379 337.165 226.342 337.165C229.125 337.165 234.292 336.772 239.494 336.306C240.801 336.538 242.093 336.844 243.365 337.223C246.296 338.147 249.305 338.796 252.356 339.163C252.356 339.163 260.141 343.364 264.293 342.312C264.635 342.215 264.954 342.05 265.231 341.826H265.328C266.083 341.637 266.939 340.856 267.83 339.678C273.022 340.211 278.959 340.968 281.165 341.831C285.467 343.495 316.237 341.191 316.237 341.191C316.237 341.191 336.114 341.584 341.81 343.311C347.505 345.038 345.482 325.678 334.972 323.5C332.167 322.936 329.313 322.654 326.451 322.656C327.179 321.904 327.844 321.093 328.44 320.231C332.224 319.887 334.73 319.673 334.73 319.673C334.73 319.673 344.761 314.769 350.471 311.791C354.116 309.803 357.391 307.197 360.148 304.088C360.148 304.088 365.161 300.935 367.237 299.722C369.313 298.509 370.348 294.469 370.348 294.469C386.079 258.743 346.126 263.477 346.126 263.477ZM301.087 218.666C301.087 218.079 301.087 217.488 301.087 216.901C301.648 217.298 301.566 217.924 301.087 218.661V218.666ZM301.251 231.05C301.672 231.603 302.079 232.108 302.369 232.505C303.487 233.961 301.464 234.64 301.609 237.051C301.643 237.589 301.691 238.341 301.74 239.175C301.527 235.697 301.353 232.835 301.251 231.045V231.05Z" fill="url(#paint1_linear)"/>
<path d="M211.221 286.31C211.221 286.31 201.544 284.054 197.039 281.973C192.534 279.892 167.29 275.905 161.755 287.872C156.219 299.839 169.366 315.783 172.652 317.519C175.937 319.256 207.936 295.492 207.936 295.492L233.175 306.164L238.014 289.603L211.221 286.31Z" fill="#65617D"/>
<path d="M313.953 289.604H239.722C229.879 289.604 221.9 297.602 221.9 307.469V310.054C221.9 319.921 229.879 327.919 239.722 327.919H313.953C323.795 327.919 331.774 319.921 331.774 310.054V307.469C331.774 297.602 323.795 289.604 313.953 289.604Z" fill="#65617D"/>
<path opacity="0.1" d="M331.774 308.759C331.778 312.528 330.67 316.214 328.59 319.353C327.883 320.417 327.072 321.408 326.171 322.312C324.398 324.094 322.291 325.507 319.972 326.47C317.653 327.434 315.166 327.928 312.656 327.924H241.013C235.944 327.924 231.083 325.906 227.498 322.312C223.914 318.719 221.9 313.846 221.9 308.764C221.9 303.682 223.914 298.809 227.498 295.215C231.083 291.622 235.944 289.603 241.013 289.603H312.661C317.729 289.603 322.59 291.621 326.174 295.214C329.758 298.806 331.773 303.678 331.774 308.759Z" fill="black"/>
<path d="M271.952 309.88C271.952 309.88 260.935 312.717 251.944 312.591C242.954 312.465 200.9 329.981 200.9 329.981C200.9 329.981 194.847 343.815 204.723 342.671C214.599 341.526 219.408 336.724 226.371 336.724C233.334 336.724 255.239 334.298 255.239 334.298L276.317 318.688L271.952 309.88Z" fill="#FBBEBE"/>
<path d="M278.848 179.332L259.086 183.237L257.804 183.494C257.804 183.494 242.18 179.332 241.662 178.982C241.144 178.633 226.962 159.478 226.962 159.478C226.962 159.478 234.133 159.555 239.765 156.3C239.968 156.184 240.167 156.058 240.365 155.937C242.842 154.439 244.723 152.126 245.688 149.393C245.789 149.107 245.876 148.811 245.959 148.5C246.559 146.182 246.597 143.373 245.794 139.973C243.859 131.887 248.31 129.66 254.209 129.854C262.73 130.136 274.328 135.466 274.328 135.466C274.478 138.188 275.096 140.862 276.152 143.373C276.244 143.606 276.346 143.858 276.452 144.081C278.568 148.869 282.279 152.77 286.948 155.117L287.572 155.427C288.201 155.728 288.864 156.014 289.551 156.271C304.619 161.995 278.848 179.332 278.848 179.332Z" fill="#FBBEBE"/>
<path opacity="0.1" d="M276.472 144.081C272.714 148.347 267.616 151.198 262.022 152.164C256.427 153.129 250.672 152.152 245.707 149.393C246.559 146.909 246.718 143.819 245.813 139.973C241.144 120.206 274.362 135.467 274.362 135.467C274.526 138.445 275.241 141.366 276.472 144.081Z" fill="black"/>
<path d="M282.709 126.522C282.717 131.193 281.409 135.772 278.935 139.73C278.13 141.029 277.204 142.248 276.172 143.373C271.814 148.162 265.76 151.052 259.304 151.425C258.82 151.459 258.302 151.474 257.799 151.474C252.873 151.474 248.058 150.01 243.963 147.266C239.867 144.523 236.675 140.624 234.79 136.062C232.905 131.499 232.412 126.48 233.373 121.636C234.334 116.793 236.706 112.345 240.189 108.853C243.672 105.361 248.109 102.984 252.94 102.02C257.771 101.057 262.779 101.551 267.33 103.441C271.881 105.331 275.77 108.531 278.507 112.636C281.244 116.742 282.704 121.569 282.704 126.507L282.709 126.522Z" fill="#FBBEBE"/>
<path opacity="0.1" d="M278.848 179.332L259.086 183.237L257.804 183.494C257.804 183.494 242.18 179.332 241.662 178.982C241.144 178.633 226.962 159.478 226.962 159.478C226.962 159.478 234.133 159.555 239.765 156.3C239.968 156.184 240.167 156.058 240.365 155.937C242.155 157.877 248.015 163.363 257.223 163.324C258.405 163.325 259.586 163.239 260.756 163.067C263.533 162.64 266.335 162.364 269.131 162.097C274.488 161.534 282.68 159.905 286.982 155.161L287.606 155.471C288.235 155.772 288.898 156.058 289.585 156.315C304.619 161.995 278.848 179.332 278.848 179.332Z" fill="black"/>
<path d="M301.159 229.959C301.329 233.776 304.101 276.773 304.101 276.773H217.792L218.378 249.701L218.862 228.048L219.016 220.941L219.708 196.324L217.207 194.112L203.61 182.101C203.711 181.781 207.399 170.824 206.886 169.281C206.373 167.738 213.462 161.481 215.886 161.132C217.264 160.811 218.618 160.398 219.941 159.895C224.02 158.44 229.463 156.344 230.063 156.674C230.91 157.13 239.397 156.339 239.741 156.305C239.741 156.305 246.002 164.421 257.189 164.372C258.367 164.366 259.543 164.272 260.707 164.091C263.485 163.664 266.286 163.387 269.083 163.096C274.711 162.509 283.459 160.739 287.557 155.432C287.557 155.432 289.536 155.515 293.34 156.674C297.143 157.833 301.817 157.838 301.817 157.838C304.07 158.466 306.267 159.277 308.388 160.263C310.403 161.222 312.484 162.033 314.616 162.689C314.616 162.689 318.593 163.727 319.634 173.782C320.674 183.838 321.724 189.562 321.724 189.562L301.159 207.417C301.159 207.417 300.99 226.127 301.159 229.959Z" fill="#F27C2E"/>
<path d="M203.615 259.956L206.639 264.811L217.966 268.813L225.752 254.581L218.576 249.726L207.074 245.219L200.503 249.032L203.615 259.956Z" fill="#FBBEBE"/>
<path d="M300.293 283.88C300.293 283.88 316.377 282.667 322.953 275.211C329.529 267.756 346.126 263.768 346.126 263.768C346.126 263.768 386.079 259.087 370.32 294.459C370.32 294.459 369.284 298.446 367.208 299.659C365.132 300.872 360.119 303.996 360.119 303.996L298.75 298.621L300.293 283.88Z" fill="#65617D"/>
<path opacity="0.1" d="M331.774 308.759C331.778 312.528 330.67 316.214 328.59 319.353C318.264 320.27 295.396 322.424 290.611 323.762C284.732 325.397 272.833 322.55 271.532 322.23L271.411 322.2C271.411 322.2 269.117 315.225 268.023 310.762C267.54 308.735 267.283 307.226 267.602 307.115C268.643 306.77 278.156 304.165 277.982 305.659C277.807 307.153 306.53 294.474 306.53 294.474L307.411 305.572C310.329 308.919 331.774 303.942 331.774 308.759Z" fill="black"/>
<path d="M361.348 299.484L360.139 303.996C357.376 307.078 354.101 309.658 350.461 311.621C344.751 314.57 334.721 319.426 334.721 319.426C334.721 319.426 297.883 322.545 291.656 324.277C285.428 326.008 272.456 322.715 272.456 322.715C272.456 322.715 267.617 307.978 268.652 307.629C269.688 307.28 279.201 304.684 279.032 306.174C278.862 307.663 307.58 294.988 307.58 294.988L361.348 299.484Z" fill="#65617D"/>
<path d="M258.781 338.358C258.781 338.358 276.888 339.624 281.194 341.269C285.501 342.913 316.266 340.638 316.266 340.638C316.266 340.638 336.143 341.026 341.838 342.734C347.534 344.441 345.511 325.271 335.001 323.122C324.492 320.973 309.68 324.136 309.68 324.136C309.68 324.136 292.967 321.977 290.94 321.71C288.912 321.444 275.562 321.832 275.562 321.832L258.781 338.358Z" fill="#FBBEBE"/>
<path opacity="0.1" d="M187.628 290.506C187.628 290.506 211.56 292.664 218.141 296.598L187.628 290.506Z" fill="black"/>
<path opacity="0.1" d="M336.903 274.77C336.903 274.77 318.163 279.339 310.817 286.062L336.903 274.77Z" fill="black"/>
<path opacity="0.1" d="M189.021 285.049C189.403 285.175 200.039 286.572 199.782 287.586C199.526 288.599 189.021 285.049 189.021 285.049Z" fill="black"/>
<path opacity="0.1" d="M172.308 311.796L173.692 317C173.692 317 176.803 319.426 177.495 320.639C178.187 321.851 182.165 322.2 182.165 322.2C182.165 322.2 186.316 324.107 187.357 325.145C188.397 326.183 199.632 329.481 210.186 330.869C220.739 332.256 240.278 334.856 244.43 336.243C247.363 337.155 250.374 337.793 253.425 338.15C253.425 338.15 261.206 342.312 265.357 341.274C269.509 340.235 276.598 321.332 276.598 321.332C276.598 321.332 249.273 314.919 248.407 312.839C247.541 310.758 221.252 301.051 221.252 301.051L205.686 301.42L172.308 311.796Z" fill="black"/>
<path d="M171.268 312.315L172.652 317.519C172.652 317.519 175.768 319.945 176.46 321.157C177.152 322.37 181.129 322.719 181.129 322.719C181.129 322.719 185.281 324.626 186.316 325.669C187.352 326.712 198.597 330 209.145 331.388C219.694 332.775 239.243 335.375 243.394 336.762C246.326 337.671 249.336 338.308 252.385 338.664C252.385 338.664 260.17 342.821 264.322 341.783C268.473 340.745 275.562 321.841 275.562 321.841C275.562 321.841 248.233 315.429 247.372 313.348C246.51 311.267 207.936 295.492 207.936 295.492L195.839 292.718L171.268 312.315Z" fill="#65617D"/>
<path d="M206.634 180.37L203.61 182.106L197.803 221.984C197.803 221.984 194.721 224.934 195.684 226.835C196.647 228.736 195.495 232.035 195.495 232.035C195.495 232.035 190.289 234.291 191.445 235.678C192.602 237.065 192.074 239.665 191.281 241.397C190.487 243.129 189.186 246.248 191.281 246.772C193.376 247.295 191.639 254.048 191.639 254.048C191.639 254.048 198.941 253.213 198.413 257.511C198.195 259.248 206.668 264.787 206.668 264.787C206.668 264.787 197.039 247.276 218.61 249.701L220.463 239.83C220.463 239.83 222.317 234.271 220.463 232.554C218.61 230.837 220.879 222.586 220.879 222.586L221.286 186.782L206.634 180.37Z" fill="#F27C2E"/>
<path opacity="0.1" d="M201.936 231.87C202.318 232.506 213.965 233.81 214.725 235.882C215.484 237.953 201.936 231.87 201.936 231.87Z" fill="black"/>
<path opacity="0.1" d="M198.263 241.77C198.263 241.77 199.845 236.818 203.586 237.705C207.326 238.593 198.263 241.77 198.263 241.77Z" fill="black"/>
<path opacity="0.1" d="M196.24 249.003C196.24 249.003 199.023 242.401 202.821 242.91C206.62 243.42 196.24 249.003 196.24 249.003Z" fill="black"/>
<path d="M322.953 248.857L321.738 256.133C321.738 256.133 309.288 279.024 307.038 279.368C304.788 279.713 292.522 264.113 292.522 264.113L289.236 248.852L302.17 246.393L307.914 240.703C307.914 240.703 322.43 242.095 322.953 248.857Z" fill="#FBBEBE"/>
<path d="M317.069 186.268L321.738 189.562V207.073C321.738 207.073 325.372 206.724 324.506 208.635C323.64 210.546 321.913 211.579 323.471 213.316C325.029 215.053 324.68 218.341 323.297 218.691C321.913 219.04 319.493 220.422 321.738 221.291C323.984 222.159 325.372 223.716 325.372 224.759C325.372 225.802 325.547 227.359 324.68 228.572C323.814 229.784 322.953 232.559 323.988 233.602C325.024 234.645 323.122 240.014 323.122 240.014C323.122 240.014 326.413 248.513 323.297 250.938C323.297 250.938 321.913 255.789 321.738 256.138C321.738 256.138 323.921 239.263 302.161 246.398C302.161 246.398 301.759 239.966 301.609 237.584C301.459 235.202 303.487 234.504 302.369 233.083C301.251 231.661 298.454 228.397 299.775 227.533C301.096 226.67 300.641 225.108 300.119 223.891C299.596 222.673 297.772 222.678 299.427 221.203C301.082 219.729 302.064 218.346 301.091 217.653C300.119 216.959 298.43 214.698 299.775 213.66C301.12 212.622 301.159 197.537 301.159 197.537C301.159 197.537 306.695 175.344 317.069 186.268Z" fill="#F27C2E"/>
<path opacity="0.1" d="M314.872 216.1C314.872 216.1 321.521 214.291 321.738 216.1C321.956 217.91 314.872 216.1 314.872 216.1Z" fill="black"/>
<path opacity="0.1" d="M307.401 221.082C307.401 221.082 316.517 218.797 317.654 220.573C318.791 222.348 307.401 221.082 307.401 221.082Z" fill="black"/>
<path opacity="0.1" d="M305.374 225.904C305.374 225.904 319.048 223.997 319.933 226.791C320.819 229.585 305.374 225.904 305.374 225.904Z" fill="black"/>
<path opacity="0.1" d="M307.401 231.87C307.909 231.996 320.567 232.884 320.819 235.295C321.071 237.705 307.401 231.87 307.401 231.87Z" fill="black"/>
<path d="M309.051 239.685H210.757C207.959 239.685 205.691 241.958 205.691 244.763V296.341C205.691 299.146 207.959 301.42 210.757 301.42H309.051C311.849 301.42 314.117 299.146 314.117 296.341V244.763C314.117 241.958 311.849 239.685 309.051 239.685Z" fill="#3F3D56"/>
<path d="M259.904 274.561C262.111 274.561 263.901 272.768 263.901 270.555C263.901 268.342 262.111 266.548 259.904 266.548C257.697 266.548 255.907 268.342 255.907 270.555C255.907 272.768 257.697 274.561 259.904 274.561Z" fill="#E7EFFD"/>
<path opacity="0.1" d="M223.846 201.844C223.846 201.844 234.239 209.809 242.276 203.741C242.276 203.741 228.689 204.978 223.846 201.844Z" fill="black"/>
<path opacity="0.1" d="M276.472 203.988C276.472 203.988 286.861 211.948 294.898 205.88C294.898 205.88 281.315 207.122 276.472 203.988Z" fill="black"/>
<path opacity="0.1" d="M282.709 126.522C282.717 131.193 281.409 135.772 278.935 139.73C278.727 132.779 277.096 125.823 273.322 120.017C269.867 114.681 259.362 105.373 252.143 107.968C251.388 108.245 250.708 108.697 250.16 109.287C249.612 109.877 249.21 110.588 248.988 111.363C248.272 114.089 250.367 115.244 251.712 117.393C253.993 121.116 254.884 125.529 254.228 129.849C254.137 130.431 254.015 131.007 253.865 131.576C252.728 135.855 250.125 140.749 252.81 144.256C254.683 146.681 258.709 147.545 259.256 150.562C259.306 150.847 259.322 151.137 259.304 151.425C259.178 153.468 257.441 155.267 256.681 157.271C255.791 159.633 256.294 161.981 257.218 164.353C258.419 167.447 260.335 170.576 260.799 173.846C261.264 177.115 260.262 180.151 259.081 183.222C257.964 186.132 256.662 189.019 256.227 192.05C255.389 197.813 257.499 204.478 253.88 209.028C253.512 209.578 252.944 209.963 252.297 210.1C249.98 210.342 250.362 206.166 248.509 204.764C248.707 207.189 248.896 209.722 248.025 211.992C247.154 214.262 244.86 216.192 242.46 215.809L241.633 210.362C240 211.974 238.034 213.207 235.875 213.976C236.725 208.183 238.772 202.632 241.884 197.677C235.792 200.617 232.241 206.981 229.071 212.967C227.097 216.707 225.05 220.791 225.742 224.967C226.023 226.67 226.754 228.29 226.913 230.002C227.073 231.715 226.454 233.718 224.862 234.368C223.473 234.936 221.852 234.257 220.85 233.122L220.676 232.913C220.579 232.787 220.488 232.656 220.4 232.525C220.227 232.262 220.074 231.986 219.941 231.7C219.508 230.675 219.184 229.607 218.973 228.513L218.867 228.028C217.255 220.941 215.804 213.631 216.984 206.462C217.42 203.823 218.213 201.204 218.117 198.526C218.044 197.016 217.737 195.527 217.207 194.112C215.794 190.144 213.075 186.501 211.526 182.504C211.509 182.477 211.496 182.448 211.487 182.417C210.675 180.302 210.273 177.658 211.778 175.96C212.552 175.082 213.713 174.641 214.681 174.02C217.691 172.056 219.036 168.325 219.592 164.765C219.843 163.16 219.969 161.538 219.97 159.914C224.049 158.459 229.492 156.363 230.092 156.693C230.939 157.149 239.426 156.359 239.77 156.325C242.354 154.831 244.609 152.633 245.712 149.417C245.814 149.131 245.901 148.835 245.983 148.525C242.109 146.429 238.858 143.342 236.562 139.577C234.265 135.813 233.005 131.505 232.91 127.093C232.814 122.681 233.887 118.323 236.019 114.462C238.15 110.601 241.264 107.376 245.044 105.114C248.824 102.852 253.134 101.635 257.536 101.587C261.938 101.539 266.273 102.661 270.102 104.839C273.93 107.017 277.114 110.173 279.33 113.986C281.545 117.799 282.713 122.133 282.714 126.546L282.709 126.522Z" fill="black"/>
<path d="M253.865 130.538C252.723 134.817 250.125 139.711 252.815 143.223C254.688 145.648 258.714 146.507 259.251 149.529C259.681 151.954 257.547 153.953 256.686 156.233C254.635 161.68 259.986 167.035 260.799 172.803C261.685 179.06 257.136 184.76 256.231 191.012C255.394 196.775 257.504 203.435 253.885 207.99C253.519 208.543 252.95 208.928 252.302 209.062C249.985 209.309 250.367 205.133 248.514 203.726C248.712 206.151 248.901 208.684 248.03 210.954C247.159 213.224 244.865 215.15 242.465 214.771L241.638 209.319C240.005 210.931 238.039 212.165 235.88 212.933C236.73 207.142 238.775 201.593 241.884 196.639C235.792 199.579 232.246 205.943 229.076 211.924C227.097 215.664 225.055 219.753 225.742 223.929C226.023 225.632 226.754 227.247 226.913 228.964C227.073 230.682 226.454 232.675 224.862 233.33C223.41 233.936 221.654 233.131 220.676 231.875C219.699 230.619 219.321 229.018 218.968 227.47C217.313 220.233 215.77 212.763 216.975 205.438C217.41 202.795 218.204 200.175 218.107 197.503C217.899 191.648 213.587 186.831 211.487 181.384C210.67 179.264 210.273 176.625 211.778 174.927C212.552 174.049 213.713 173.608 214.681 172.987C217.686 171.018 219.036 167.292 219.587 163.732C220.182 159.883 220.072 155.958 219.263 152.148C218.049 146.449 215.262 140.88 215.954 135.093C216.631 129.398 220.521 124.703 223.139 119.605C226.507 113.006 227.799 105.539 226.846 98.1886C226.396 94.7688 225.607 90.8106 227.92 88.2543C230.697 85.1886 236.073 86.3431 239.242 83.6849C240.791 82.3898 241.541 80.3961 242.688 78.7371C244.121 76.7442 246.124 75.2346 248.432 74.4082C250.74 73.5818 253.244 73.4777 255.612 74.1095C257.789 74.7353 259.744 75.9771 261.902 76.6804C264.941 77.6506 268.193 77.5439 271.386 77.9271C274.58 78.3103 277.923 79.3823 279.753 82.0065C280.72 83.4036 281.161 85.1062 282.051 86.5517C283.962 89.6562 287.606 91.1502 290.364 93.5319C292.729 95.646 294.421 98.4116 295.228 101.483C296.035 104.555 295.922 107.798 294.903 110.805C293.257 115.399 289.449 119.464 289.774 124.334C289.904 126.337 290.741 128.302 290.48 130.286C289.715 135.811 281.717 136.912 278.954 141.753C279.177 133.817 277.657 125.644 273.336 118.993C269.881 113.658 259.377 104.344 252.157 106.939C251.403 107.218 250.724 107.671 250.176 108.26C249.628 108.85 249.226 109.561 249.002 110.335C248.286 113.056 250.381 114.215 251.726 116.364C253.014 118.462 253.867 120.798 254.235 123.233C254.602 125.668 254.477 128.153 253.865 130.538Z" fill="#3F3D56"/>
<g opacity="0.2">
<path opacity="0.2" d="M219.941 158.032C220.001 155.54 219.769 153.049 219.249 150.611C218.218 145.76 216.06 141.011 215.862 136.141C215.581 141.564 218.112 146.812 219.249 152.148C219.661 154.084 219.893 156.054 219.941 158.032Z" fill="black"/>
<path opacity="0.2" d="M240.554 197.396C240.975 196.625 241.41 195.858 241.88 195.111C235.793 198.051 232.241 204.415 229.071 210.401C227.238 213.859 225.355 217.623 225.636 221.475C225.868 218.172 227.489 214.951 229.071 211.958C232.004 206.423 235.265 200.573 240.554 197.396Z" fill="black"/>
<path opacity="0.2" d="M226.884 228.766C226.701 230.075 226.052 231.317 224.862 231.807C223.41 232.408 221.654 231.608 220.681 230.352C219.709 229.095 219.321 227.5 218.968 225.947C217.788 220.776 216.665 215.479 216.549 210.207C216.433 215.994 217.662 221.824 218.968 227.509C219.321 229.057 219.704 230.662 220.681 231.914C221.659 233.165 223.396 233.97 224.862 233.369C226.454 232.714 227.078 230.72 226.918 229.003C226.884 228.921 226.884 228.843 226.884 228.766Z" fill="black"/>
<path opacity="0.2" d="M254.427 125.328C254.37 126.574 254.182 127.81 253.865 129.015C253.023 132.183 251.378 135.694 251.673 138.716C251.906 136.078 253.164 133.206 253.865 130.562C254.314 128.856 254.503 127.092 254.427 125.328Z" fill="black"/>
<path opacity="0.2" d="M227.131 102.181C227.172 100.331 227.071 98.4806 226.831 96.6461C226.652 95.2976 226.425 93.8617 226.347 92.4599C226.236 94.3274 226.575 96.3405 226.831 98.208C227.004 99.5258 227.104 100.852 227.131 102.181Z" fill="black"/>
<path opacity="0.2" d="M259.256 149.577C259.256 149.534 259.256 149.5 259.222 149.456C258.854 151.261 257.373 152.91 256.691 154.724C256.286 155.807 256.14 156.97 256.265 158.119C256.324 157.492 256.467 156.875 256.691 156.286C257.548 154.001 259.681 151.983 259.256 149.577Z" fill="black"/>
<path opacity="0.2" d="M218.107 195.979C217.894 190.125 213.587 185.308 211.483 179.86C211.147 179.003 210.919 178.107 210.805 177.193C210.689 178.637 210.921 180.088 211.483 181.422C213.554 186.797 217.744 191.526 218.083 197.25C218.107 196.828 218.121 196.401 218.107 195.979Z" fill="black"/>
<path opacity="0.2" d="M273.336 117.47C269.877 112.134 259.377 102.821 252.157 105.416C251.402 105.695 250.723 106.147 250.174 106.737C249.625 107.327 249.222 108.037 248.998 108.812C248.827 109.405 248.809 110.033 248.944 110.636C248.944 110.548 248.973 110.461 248.998 110.374C249.222 109.599 249.624 108.888 250.173 108.298C250.722 107.708 251.402 107.256 252.157 106.978C259.377 104.383 269.877 113.711 273.336 119.032C277.246 125.057 278.858 132.328 278.964 139.541C279.066 131.804 277.522 123.912 273.336 117.47Z" fill="black"/>
<path opacity="0.2" d="M290.466 128.748C289.706 134.259 281.756 135.37 278.964 140.181C278.964 140.71 278.964 141.244 278.964 141.772C281.722 136.922 289.725 135.83 290.485 130.305C290.553 129.763 290.553 129.213 290.485 128.671C290.481 128.697 290.474 128.723 290.466 128.748Z" fill="black"/>
<path opacity="0.2" d="M294.888 109.263C293.243 113.861 289.435 117.921 289.759 122.796C289.759 122.864 289.759 122.937 289.759 123.01C290.117 118.717 293.374 114.992 294.864 110.825C295.535 108.921 295.823 106.903 295.711 104.887C295.658 106.379 295.38 107.854 294.888 109.263Z" fill="black"/>
<path opacity="0.2" d="M253.885 206.476C253.519 207.03 252.951 207.417 252.302 207.553C249.985 207.801 250.367 203.624 248.514 202.217C248.562 202.77 248.606 203.328 248.635 203.886C250.357 205.38 250.038 209.353 252.302 209.11C252.624 209.045 252.929 208.916 253.2 208.732C253.472 208.548 253.704 208.313 253.885 208.038C255.951 205.438 256.149 202.154 256.096 198.744C256.043 201.587 255.631 204.298 253.885 206.476Z" fill="black"/>
<path opacity="0.2" d="M248.025 209.445C247.144 211.72 244.86 213.646 242.456 213.263C242.181 211.448 241.907 209.631 241.633 207.81C240.071 209.347 238.207 210.541 236.16 211.317C236.054 211.87 235.952 212.428 235.87 212.986C238.031 212.218 239.999 210.985 241.633 209.372C241.907 211.193 242.181 213.01 242.456 214.825C244.875 215.203 247.144 213.282 248.025 211.007C248.566 209.422 248.781 207.744 248.659 206.074C248.633 207.225 248.419 208.364 248.025 209.445Z" fill="black"/>
<path opacity="0.2" d="M256.231 189.499C256.045 190.964 255.975 192.442 256.023 193.918C256.031 192.962 256.101 192.008 256.231 191.061C257.098 185.099 261.264 179.642 260.886 173.729C260.552 179.075 257.02 184.066 256.231 189.499Z" fill="black"/>
</g>
<path d="M400.112 272.209C400.112 272.209 396.826 287.552 411.449 289.371L412.354 287.668C412.354 287.668 401.031 276.996 400.112 272.209Z" fill="#F27C2E"/>
<path d="M417.018 287.566L413.631 288.289L413.292 288.362C413.292 288.362 404.22 280.979 404.336 264.496C405.55 266.925 407.001 269.227 408.667 271.37C412.252 276.138 416.341 282.507 417.018 287.566Z" fill="#F27C2E"/>
<path d="M418.17 289.148C417.902 289.321 417.599 289.433 417.282 289.474C416.966 289.515 416.644 289.485 416.341 289.385C407.631 287.338 410.559 258.826 410.559 258.826C411.042 259.054 411.57 262.706 413.578 267.363C417.101 275.604 420.972 287.081 418.17 289.148Z" fill="#F27C2E"/>
<path d="M437.535 272.209C437.535 272.209 438.101 287.552 423.478 289.371L422.573 287.668C422.573 287.668 436.63 276.996 437.535 272.209Z" fill="#F27C2E"/>
<path d="M433.344 264.496C433.451 280.989 421.664 288.362 421.664 288.362L421.325 288.289L417.938 287.566C418.61 282.507 422.709 276.138 426.299 271.37C428.33 268.773 430.7 266.461 433.344 264.496Z" fill="#F27C2E"/>
<path d="M421.272 287.654C420.748 288.293 420.086 288.804 419.336 289.148C419.107 289.251 418.869 289.33 418.625 289.385C416.476 289.87 415.721 288.337 415.847 285.699C416.051 280.998 418.997 272.849 421.654 266.781C423.56 262.386 426.672 259.058 427.136 258.84C427.107 258.816 426.976 281.027 421.272 287.654Z" fill="#F27C2E"/>
<path d="M418.833 248.814C418.833 248.814 409.083 283.477 417.473 288.706C425.864 293.935 420.986 251.884 418.833 248.814Z" fill="#F27C2E"/>
<path opacity="0.1" d="M400.112 272.209C400.112 272.209 396.826 287.552 411.449 289.371L412.354 287.668C412.354 287.668 401.031 276.996 400.112 272.209Z" fill="black"/>
<path opacity="0.1" d="M417.018 287.566L413.631 288.289L413.292 288.362C413.292 288.362 404.22 280.979 404.336 264.496C405.55 266.925 407.001 269.227 408.667 271.37C412.252 276.138 416.341 282.507 417.018 287.566Z" fill="black"/>
<path opacity="0.1" d="M418.17 289.148C417.902 289.321 417.599 289.433 417.282 289.474C416.966 289.515 416.644 289.485 416.341 289.385C407.631 287.338 410.559 258.826 410.559 258.826C411.042 259.054 411.57 262.706 413.578 267.363C417.101 275.604 420.972 287.081 418.17 289.148Z" fill="black"/>
<path opacity="0.1" d="M437.535 272.209C437.535 272.209 438.101 287.552 423.478 289.371L422.573 287.668C422.573 287.668 436.63 276.996 437.535 272.209Z" fill="black"/>
<path opacity="0.1" d="M433.344 264.496C433.451 280.989 421.664 288.362 421.664 288.362L421.325 288.289L417.938 287.566C418.61 282.507 422.709 276.138 426.299 271.37C428.33 268.773 430.7 266.461 433.344 264.496Z" fill="black"/>
<path opacity="0.1" d="M421.272 287.654C420.748 288.293 420.086 288.804 419.336 289.148C419.107 289.251 418.869 289.33 418.625 289.385C416.476 289.87 415.721 288.337 415.847 285.699C416.051 280.998 418.997 272.849 421.654 266.781C423.56 262.386 426.672 259.058 427.136 258.84C427.107 258.816 426.976 281.027 421.272 287.654Z" fill="black"/>
<path opacity="0.1" d="M418.833 248.814C418.833 248.814 409.083 283.477 417.473 288.706C425.864 293.935 420.986 251.884 418.833 248.814Z" fill="black"/>
<path d="M400.112 272.209C400.112 272.209 398.176 287.552 412.809 289.371L413.713 287.668C413.713 287.668 401.031 276.996 400.112 272.209Z" fill="#F27C2E"/>
<path d="M418.378 287.566L414.991 288.289L414.647 288.362C414.647 288.362 404.215 280.979 404.331 264.496C404.331 264.496 407.002 267.368 410.021 271.37C413.612 276.138 417.701 282.507 418.378 287.566Z" fill="#F27C2E"/>
<path opacity="0.1" d="M418.378 287.566L414.991 288.289C411.763 285.451 410.486 278.044 410.021 271.37C413.612 276.138 417.701 282.507 418.378 287.566Z" fill="black"/>
<path d="M419.53 289.148C419.262 289.321 418.958 289.433 418.642 289.474C418.325 289.515 418.004 289.485 417.701 289.385C408.967 287.338 410.559 258.826 410.559 258.826C411.042 259.054 412.93 262.706 414.913 267.363C418.46 275.604 422.331 287.081 419.53 289.148Z" fill="#F27C2E"/>
<path d="M437.534 272.209C437.534 272.209 439.47 287.552 424.838 289.371L423.933 287.668C423.933 287.668 436.63 276.996 437.534 272.209Z" fill="#F27C2E"/>
<path d="M433.344 264.496C433.451 280.989 423.023 288.362 423.023 288.362L422.684 288.289L419.297 287.566C419.975 282.507 424.068 276.138 427.659 271.37C430.668 267.358 433.344 264.496 433.344 264.496Z" fill="#F27C2E"/>
<path opacity="0.1" d="M427.644 271.37C427.209 277.598 426.072 284.467 423.314 287.653C423.121 287.882 422.911 288.094 422.684 288.289L419.297 287.566C419.951 282.507 424.054 276.138 427.644 271.37Z" fill="black"/>
<path d="M422.631 287.654C422.108 288.293 421.446 288.804 420.696 289.148C420.466 289.251 420.226 289.33 419.98 289.385C417.831 289.87 417.076 288.337 417.202 285.699C417.41 280.998 420.352 272.849 423.009 266.781C424.915 262.386 426.667 259.058 427.131 258.84C427.107 258.816 428.336 281.027 422.631 287.654Z" fill="#F27C2E"/>
<path opacity="0.1" d="M419.53 289.148C419.036 289.145 418.555 288.991 418.151 288.706C414.042 286.14 413.96 276.511 414.938 267.363C418.46 275.604 422.331 287.081 419.53 289.148Z" fill="black"/>
<path opacity="0.1" d="M422.631 287.654C422.147 288.677 421.523 289.22 420.696 289.148C420.277 289.092 419.876 288.941 419.525 288.706C418.458 287.97 417.646 286.919 417.202 285.699C417.41 280.998 420.352 272.849 423.009 266.781C423.928 275.216 424.242 284.185 422.631 287.654Z" fill="black"/>
<path d="M418.833 248.814C418.833 248.814 410.442 283.477 418.833 288.706C427.223 293.935 420.986 251.884 418.833 248.814Z" fill="#F27C2E"/>
<path d="M434.931 286.999H400.015V292.795H405.342L405.473 293.479L407.607 304.728H427.905L430.039 293.479L430.17 292.795H434.931V286.999Z" fill="#D4DFEC"/>
<path opacity="0.1" d="M434.917 286.999H400V292.795H405.328L405.458 293.479L407.592 304.728H427.891L430.025 293.479L430.155 292.795H434.917V286.999Z" fill="black"/>
<path d="M431.985 290.409L431.399 293.479L429.265 304.728H408.967L406.833 293.479L406.247 290.409H431.985Z" fill="#D4DFEC"/>
<path opacity="0.1" d="M431.985 290.409L431.399 293.479H406.833L406.247 290.409H431.985Z" fill="black"/>
<path d="M436.291 286.999H401.375V292.795H436.291V286.999Z" fill="#D4DFEC"/>
<path d="M138.205 249.895C137.708 250.579 137.31 251.331 137.024 252.127C136.951 252.321 136.879 252.544 136.806 252.757C136.676 252.693 136.537 252.646 136.395 252.617C135.792 252.463 135.167 252.409 134.547 252.457C134.547 252.214 134.571 251.972 134.58 251.695C134.658 248.95 134.334 245.132 131.726 246.747C129.224 248.309 131.009 250.9 132.626 252.568C132.766 252.714 132.901 252.845 133.037 252.976C131.585 254.038 131.285 256.478 131.038 259.034C130.792 261.591 128.619 264.37 127.196 265.971C127.056 266.131 126.921 266.276 126.79 266.412C126.211 265.945 125.54 265.608 124.821 265.422C124.101 265.236 123.351 265.207 122.619 265.335L122.425 264.627C121.264 260.421 118.85 253.136 115.772 251.53L116.179 251.016C117.485 249.299 118.956 246.752 116.783 246.102C114.611 245.452 114.412 248.309 114.533 250.468C114.533 250.735 114.572 250.992 114.596 251.229C114.161 251.25 113.735 251.359 113.343 251.55C112.951 251.741 112.602 252.01 112.317 252.34C112.216 252.214 112.104 252.083 111.983 251.942C110.222 249.852 106.985 246.548 106.008 249.032C105.098 251.36 107.943 254.368 109.946 256.143L110.072 256.25C108.727 261.721 114.591 266.174 117.756 268.124C117.896 268.217 118.032 268.299 118.162 268.377C113.808 273.523 111.112 283.176 111.112 283.176L123.335 285.403C123.335 285.403 131.43 278.403 130.395 271.821H130.477C138.563 270.196 140.401 261.552 139.143 256.42L139.284 256.361C140.756 255.756 142.046 254.779 143.029 253.524C145.274 250.38 140.527 246.815 138.205 249.895Z" fill="#F27C2E"/>
<path opacity="0.1" d="M138.205 249.895C137.708 250.579 137.31 251.331 137.024 252.127C136.951 252.321 136.879 252.544 136.806 252.757C136.676 252.693 136.537 252.646 136.395 252.617C135.792 252.463 135.167 252.409 134.547 252.457C134.547 252.214 134.571 251.972 134.58 251.695C134.658 248.95 134.334 245.132 131.726 246.747C129.224 248.309 131.009 250.9 132.626 252.568C132.766 252.714 132.901 252.845 133.037 252.976C131.585 254.038 131.285 256.478 131.038 259.034C130.792 261.591 128.619 264.37 127.196 265.971C127.056 266.131 126.921 266.276 126.79 266.412C126.211 265.945 125.54 265.608 124.821 265.422C124.101 265.236 123.351 265.207 122.619 265.335L122.425 264.627C121.264 260.421 118.85 253.136 115.772 251.53L116.179 251.016C117.485 249.299 118.956 246.752 116.783 246.102C114.611 245.452 114.412 248.309 114.533 250.468C114.533 250.735 114.572 250.992 114.596 251.229C114.161 251.25 113.735 251.359 113.343 251.55C112.951 251.741 112.602 252.01 112.317 252.34C112.216 252.214 112.104 252.083 111.983 251.942C110.222 249.852 106.985 246.548 106.008 249.032C105.098 251.36 107.943 254.368 109.946 256.143L110.072 256.25C108.727 261.721 114.591 266.174 117.756 268.124C117.896 268.217 118.032 268.299 118.162 268.377C113.808 273.523 111.112 283.176 111.112 283.176L123.335 285.403C123.335 285.403 131.43 278.403 130.395 271.821H130.477C138.563 270.196 140.401 261.552 139.143 256.42L139.284 256.361C140.756 255.756 142.046 254.779 143.029 253.524C145.274 250.38 140.527 246.815 138.205 249.895Z" fill="black"/>
<path d="M113.914 253.436L112.487 257.627C112.487 257.627 111.693 257.065 110.691 256.172C108.688 254.416 105.853 251.389 106.753 249.061C107.72 246.558 110.967 249.861 112.733 251.971C113.44 252.806 113.914 253.436 113.914 253.436Z" fill="#F27C2E"/>
<path d="M116.924 251.05C116.489 251.62 116.026 252.167 115.535 252.689C115.412 251.96 115.326 251.225 115.279 250.487C115.162 248.343 115.385 245.496 117.529 246.122C119.672 246.747 118.23 249.333 116.924 251.05Z" fill="#F27C2E"/>
<path d="M135.33 251.71C135.282 253.087 135.151 254.188 135.151 254.188C134.523 253.696 133.929 253.163 133.371 252.592C131.754 250.914 129.984 248.324 132.475 246.772C135.084 245.147 135.403 248.964 135.33 251.71Z" fill="#F27C2E"/>
<path d="M143.759 253.514C142.777 254.769 141.486 255.747 140.014 256.352C139.605 256.531 139.185 256.684 138.756 256.808L137.077 254.441C137.255 253.659 137.488 252.89 137.774 252.141C138.058 251.344 138.456 250.593 138.954 249.91C141.277 246.815 146.019 250.38 143.759 253.514Z" fill="#F27C2E"/>
<path opacity="0.1" d="M112.733 251.962C113.44 252.796 113.914 253.417 113.914 253.417L112.487 257.608C112.487 257.608 111.693 257.045 110.691 256.153C110.914 254.811 111.466 253.546 112.298 252.471C112.443 252.296 112.588 252.127 112.733 251.962Z" fill="black"/>
<path opacity="0.1" d="M116.924 251.05C116.489 251.62 116.026 252.167 115.535 252.689C115.412 251.96 115.326 251.225 115.279 250.487C115.872 250.497 116.448 250.694 116.924 251.05Z" fill="black"/>
<path d="M123.94 267.669L120.393 269.235C119.745 268.911 119.113 268.553 118.501 268.163C114.771 265.864 107.27 260.077 112.298 253.252C117.325 246.427 121.521 258.666 123.171 264.651C123.674 266.441 123.94 267.669 123.94 267.669Z" fill="#F27C2E"/>
<path opacity="0.1" d="M133.371 252.592C133.887 252.058 134.588 251.742 135.33 251.71C135.282 253.087 135.151 254.188 135.151 254.188C134.523 253.696 133.929 253.163 133.371 252.592Z" fill="black"/>
<path opacity="0.1" d="M140.014 256.352C139.605 256.531 139.185 256.684 138.756 256.808L137.077 254.441C137.255 253.659 137.488 252.89 137.774 252.141C138.858 252.777 139.656 254.358 140.014 256.352Z" fill="black"/>
<path d="M131.203 271.811C131.009 271.85 130.806 271.889 130.607 271.918C118.709 273.732 126.683 267.295 126.683 267.295C126.683 267.295 127.22 266.81 127.946 265.995C129.398 264.404 131.541 261.629 131.788 259.058C132.161 255.178 132.591 251.564 137.145 252.631C141.611 253.679 142.462 269.551 131.203 271.811Z" fill="#F27C2E"/>
<path d="M130.985 301.507H108.253V307.498H130.985V301.507Z" fill="#D4DFEC"/>
<path d="M134.338 282.031H104.638V302.943H134.338V282.031Z" fill="#D4DFEC"/>
<path opacity="0.1" d="M130.985 301.507H108.253V307.498H130.985V301.507Z" fill="black"/>
<path opacity="0.1" d="M134.338 282.031H104.638V302.943H134.338V282.031Z" fill="black"/>
<path d="M132.475 301.507H109.743V307.498H132.475V301.507Z" fill="#D4DFEC"/>
<path opacity="0.1" d="M123.171 264.651C123.654 266.441 123.94 267.668 123.94 267.668L120.393 269.235C119.745 268.91 119.113 268.553 118.501 268.163C119.89 266.388 121.458 265.064 123.171 264.651Z" fill="black"/>
<path opacity="0.1" d="M131.203 271.811C131.009 271.85 130.806 271.889 130.607 271.918C118.709 273.732 126.683 267.295 126.683 267.295C126.683 267.295 127.22 266.81 127.946 265.995C130.167 267.775 131.077 269.783 131.203 271.811Z" fill="black"/>
<path d="M111.862 283.215C111.862 283.215 118.525 259.311 127.864 266.674C137.203 274.037 124.066 285.403 124.066 285.403L111.862 283.215Z" fill="#F27C2E"/>
<path opacity="0.1" d="M115.225 257.749C115.637 257.749 115.97 257.414 115.97 257.002C115.97 256.589 115.637 256.255 115.225 256.255C114.814 256.255 114.48 256.589 114.48 257.002C114.48 257.414 114.814 257.749 115.225 257.749Z" fill="black"/>
<path opacity="0.1" d="M115.162 261.241C115.574 261.241 115.908 260.907 115.908 260.494C115.908 260.082 115.574 259.747 115.162 259.747C114.751 259.747 114.417 260.082 114.417 260.494C114.417 260.907 114.751 261.241 115.162 261.241Z" fill="black"/>
<path opacity="0.1" d="M136.83 258.433C137.242 258.433 137.575 258.098 137.575 257.686C137.575 257.273 137.242 256.939 136.83 256.939C136.419 256.939 136.085 257.273 136.085 257.686C136.085 258.098 136.419 258.433 136.83 258.433Z" fill="black"/>
<path opacity="0.1" d="M119.396 276.346C119.808 276.346 120.141 276.012 120.141 275.599C120.141 275.187 119.808 274.852 119.396 274.852C118.985 274.852 118.651 275.187 118.651 275.599C118.651 276.012 118.985 276.346 119.396 276.346Z" fill="black"/>
<path opacity="0.1" d="M135.277 264.239C135.689 264.239 136.022 263.905 136.022 263.492C136.022 263.079 135.689 262.745 135.277 262.745C134.865 262.745 134.532 263.079 134.532 263.492C134.532 263.905 134.865 264.239 135.277 264.239Z" fill="black"/>
<path opacity="0.1" d="M127.554 271.981C127.966 271.981 128.299 271.646 128.299 271.234C128.299 270.821 127.966 270.487 127.554 270.487C127.143 270.487 126.809 270.821 126.809 271.234C126.809 271.646 127.143 271.981 127.554 271.981Z" fill="black"/>
<path opacity="0.1" d="M117.78 259.243C118.192 259.243 118.525 258.908 118.525 258.496C118.525 258.083 118.192 257.749 117.78 257.749C117.369 257.749 117.035 258.083 117.035 258.496C117.035 258.908 117.369 259.243 117.78 259.243Z" fill="black"/>
<path opacity="0.1" d="M134.779 260.679C135.19 260.679 135.524 260.344 135.524 259.932C135.524 259.519 135.19 259.185 134.779 259.185C134.367 259.185 134.033 259.519 134.033 259.932C134.033 260.344 134.367 260.679 134.779 260.679Z" fill="black"/>
<path opacity="0.1" d="M132.224 266.485C132.635 266.485 132.969 266.15 132.969 265.738C132.969 265.325 132.635 264.991 132.224 264.991C131.812 264.991 131.479 265.325 131.479 265.738C131.479 266.15 131.812 266.485 132.224 266.485Z" fill="black"/>
<path opacity="0.1" d="M124.38 275.789C124.792 275.789 125.125 275.454 125.125 275.042C125.125 274.629 124.792 274.295 124.38 274.295C123.969 274.295 123.635 274.629 123.635 275.042C123.635 275.454 123.969 275.789 124.38 275.789Z" fill="black"/>
<path opacity="0.1" d="M122.759 272.102C123.171 272.102 123.505 271.768 123.505 271.355C123.505 270.942 123.171 270.608 122.759 270.608C122.348 270.608 122.014 270.942 122.014 271.355C122.014 271.768 122.348 272.102 122.759 272.102Z" fill="black"/>
<path opacity="0.1" d="M118.898 263.802C119.309 263.802 119.643 263.468 119.643 263.055C119.643 262.643 119.309 262.308 118.898 262.308C118.486 262.308 118.153 262.643 118.153 263.055C118.153 263.468 118.486 263.802 118.898 263.802Z" fill="black"/>
<path opacity="0.1" d="M132.475 301.507H109.743V303.695H132.475V301.507Z" fill="black"/>
<path d="M135.833 282.031H106.133V302.943H135.833V282.031Z" fill="#D4DFEC"/>
<path opacity="0.1" d="M125.377 279.16C125.789 279.16 126.122 278.825 126.122 278.413C126.122 278 125.789 277.666 125.377 277.666C124.965 277.666 124.632 278 124.632 278.413C124.632 278.825 124.965 279.16 125.377 279.16Z" fill="black"/>
<path opacity="0.1" d="M120.891 280.096C121.303 280.096 121.637 279.762 121.637 279.349C121.637 278.936 121.303 278.602 120.891 278.602C120.48 278.602 120.146 278.936 120.146 279.349C120.146 279.762 120.48 280.096 120.891 280.096Z" fill="black"/>
</g>
<defs>
<linearGradient id="paint0_linear" x1="268.497" y1="299.955" x2="268.497" y2="5.23984e-06" gradientUnits="userSpaceOnUse">
<stop offset="0.2" stop-color="#808080" stop-opacity="0.4"/>
<stop offset="0.46" stop-color="#808080" stop-opacity="0.5"/>
<stop offset="1" stop-opacity="0.6"/>
</linearGradient>
<linearGradient id="paint1_linear" x1="267.215" y1="343.335" x2="267.215" y2="71.4853" gradientUnits="userSpaceOnUse">
<stop stop-color="#808080" stop-opacity="0.25"/>
<stop offset="0.54" stop-color="#808080" stop-opacity="0.12"/>
<stop offset="1" stop-color="#808080" stop-opacity="0.1"/>
</linearGradient>
<clipPath id="clip0">
<rect width="537" height="363" fill="white"/>
</clipPath>
</defs>
</svg>
