<svg width="720" height="1024" viewBox="0 0 720 1024" fill="none" xmlns="http://www.w3.org/2000/svg">
<path fill-rule="evenodd" clip-rule="evenodd" d="M485.275 1024C629.013 899.943 720 716.355 720 511.5C720 307.195 629.501 124.042 486.431 0L0 0V1024H485.275Z" fill="url(#paint0_linear)"/>
<path d="M134.56 218.4C135.56 218.4 136.06 218.82 136.06 219.66V219.9C136.06 220.54 135.5 221.38 134.38 222.42C133.3 223.42 132.46 224.48 131.86 225.6L122.14 243.36V253.8C122.14 254.88 122.6 255.98 123.52 257.1C124.44 258.18 124.9 258.98 124.9 259.5V259.74C124.9 260.58 124.4 261 123.4 261H108.7C107.7 261 107.2 260.58 107.2 259.74V259.5C107.2 258.98 107.6 258.18 108.4 257.1C109.24 255.98 109.66 254.88 109.66 253.8V244.56L97.96 225.6C97.44 224.76 96.8 223.98 96.04 223.26C95.28 222.5 94.68 221.88 94.24 221.4C93.84 220.92 93.64 220.42 93.64 219.9V219.66C93.64 218.82 94.14 218.4 95.14 218.4H113.44C114.44 218.4 114.94 218.82 114.94 219.66V219.9C114.94 220.38 114.6 220.92 113.92 221.52C113.24 222.12 112.66 222.76 112.18 223.44C111.74 224.08 111.74 224.8 112.18 225.6L119.14 238.5L126.04 225.6C126.48 224.76 126.48 224 126.04 223.32C125.6 222.64 125.04 222.02 124.36 221.46C123.68 220.9 123.34 220.38 123.34 219.9V219.66C123.34 218.82 123.84 218.4 124.84 218.4H134.56ZM146.625 261.6C142.105 261.6 138.185 260.2 134.865 257.4C131.545 254.56 129.885 250.96 129.885 246.6C129.885 242.24 131.545 238.66 134.865 235.86C138.185 233.02 142.105 231.6 146.625 231.6C151.185 231.6 155.105 233.02 158.385 235.86C161.665 238.66 163.305 242.24 163.305 246.6C163.305 250.96 161.665 254.56 158.385 257.4C155.105 260.2 151.185 261.6 146.625 261.6ZM148.065 258.36C149.185 258.36 149.925 257.86 150.285 256.86C150.645 255.82 150.825 254.22 150.825 252.06C150.825 250.62 150.625 248.66 150.225 246.18C149.865 243.66 149.165 241.14 148.125 238.62C147.125 236.1 145.945 234.84 144.585 234.84C143.505 234.84 142.785 235.34 142.425 236.34C142.065 237.34 141.885 238.98 141.885 241.26C141.885 242.86 142.065 244.92 142.425 247.44C142.825 249.92 143.525 252.36 144.525 254.76C145.565 257.16 146.745 258.36 148.065 258.36ZM197.311 253.98C197.311 255.1 197.431 255.96 197.671 256.56C197.951 257.12 198.231 257.44 198.511 257.52C198.791 257.56 199.051 257.72 199.291 258C199.571 258.24 199.711 258.64 199.711 259.2C199.711 260.64 197.431 261.36 192.871 261.36C190.911 261.36 189.471 261.12 188.551 260.64C187.631 260.16 187.071 259.36 186.871 258.24C185.311 260.48 182.571 261.6 178.651 261.6C175.571 261.6 172.931 260.58 170.731 258.54C168.531 256.5 167.431 253.74 167.431 250.26V240.42C167.431 239.34 167.011 238.28 166.171 237.24C165.371 236.16 164.971 235.4 164.971 234.96V234.72C164.971 234.36 165.111 234.04 165.391 233.76C165.671 233.44 166.031 233.26 166.471 233.22L176.431 231.9C178.551 231.66 179.611 232.12 179.611 233.28L179.371 251.52C179.331 253.64 179.551 255.12 180.031 255.96C180.511 256.8 181.291 257.22 182.371 257.22C183.211 257.22 183.911 256.74 184.471 255.78C185.071 254.82 185.371 253.58 185.371 252.06V240.42C185.371 239.34 184.951 238.28 184.111 237.24C183.311 236.16 182.911 235.4 182.911 234.96V234.72C182.911 234.36 183.051 234.04 183.331 233.76C183.611 233.44 183.971 233.26 184.411 233.22L194.371 231.9C196.331 231.66 197.311 232.12 197.311 233.28V253.98ZM242.731 253.98C242.851 254.98 243.071 255.8 243.391 256.44C243.751 257.04 244.091 257.44 244.411 257.64C244.731 257.8 245.011 258.02 245.251 258.3C245.531 258.54 245.671 258.84 245.671 259.2C245.671 260.64 243.171 261.36 238.171 261.36C234.531 261.36 232.471 260.48 231.991 258.72C230.431 260.64 227.971 261.6 224.611 261.6C221.251 261.6 218.511 260.84 216.391 259.32C214.271 257.76 213.211 255.48 213.211 252.48C213.211 249.56 214.251 247.3 216.331 245.7C218.411 244.06 220.951 243.24 223.951 243.24C226.231 243.24 228.151 243.68 229.711 244.56C229.231 239.96 228.831 237.24 228.511 236.4C228.071 235.28 227.311 234.72 226.231 234.72C225.471 234.72 224.851 235.16 224.371 236.04C223.891 236.88 223.531 237.84 223.291 238.92C223.091 239.96 222.591 240.92 221.791 241.8C220.991 242.64 219.931 243.06 218.611 243.06C217.211 243.06 216.071 242.66 215.191 241.86C214.311 241.06 213.871 240.02 213.871 238.74C213.871 237.06 214.491 235.66 215.731 234.54C217.011 233.42 218.531 232.66 220.291 232.26C222.091 231.82 224.071 231.6 226.231 231.6C230.351 231.6 233.771 232.7 236.491 234.9C239.251 237.06 240.871 239.96 241.351 243.6L242.731 253.98ZM228.451 258.24C229.171 258.24 229.731 257.82 230.131 256.98C230.531 256.14 230.691 255.26 230.611 254.34L230.371 251.52C229.971 248.32 228.991 246.72 227.431 246.72C226.831 246.72 226.331 247.04 225.931 247.68C225.571 248.32 225.391 249.14 225.391 250.14C225.391 252.42 225.651 254.34 226.171 255.9C226.731 257.46 227.491 258.24 228.451 258.24ZM268.499 231.6C270.219 231.6 271.579 232.2 272.579 233.4C273.619 234.56 274.139 236.06 274.139 237.9C274.139 242.14 272.419 244.26 268.979 244.26C267.579 244.26 266.519 243.96 265.799 243.36C265.119 242.72 264.719 242.02 264.599 241.26C264.519 240.5 264.339 239.82 264.059 239.22C263.779 238.58 263.339 238.26 262.739 238.26C261.779 238.26 261.299 239.5 261.299 241.98V253.8C261.299 254.64 261.579 255.4 262.139 256.08C262.699 256.76 263.259 257.38 263.819 257.94C264.379 258.5 264.659 259.02 264.659 259.5V259.74C264.659 260.58 264.159 261 263.159 261H248.819C247.819 261 247.319 260.58 247.319 259.74V259.5C247.319 258.98 247.719 258.18 248.519 257.1C249.359 255.98 249.779 254.88 249.779 253.8V243.54C249.779 242.7 249.519 242 248.999 241.44C248.519 240.84 248.019 240.32 247.499 239.88C246.979 239.4 246.719 238.92 246.719 238.44V238.2C246.719 237.48 247.219 236.86 248.219 236.34L257.759 231.84C258.599 231.52 259.179 231.5 259.499 231.78C259.859 232.06 260.039 232.56 260.039 233.28V237.66C261.359 233.62 264.179 231.6 268.499 231.6ZM299.806 251.28C300.246 250.8 300.746 250.66 301.306 250.86C301.866 251.06 302.146 251.5 302.146 252.18C302.146 254.18 301.006 256.26 298.726 258.42C296.486 260.54 293.566 261.6 289.966 261.6C285.486 261.6 281.846 260.2 279.046 257.4C276.286 254.6 274.906 250.94 274.906 246.42C274.906 242.06 276.366 238.5 279.286 235.74C282.246 232.98 285.746 231.6 289.786 231.6C293.466 231.6 296.306 232.42 298.306 234.06C300.346 235.7 301.366 237.54 301.366 239.58C301.366 241.06 300.686 242.24 299.326 243.12L288.466 250.2C290.026 252.2 292.026 253.2 294.466 253.2C296.746 253.2 298.526 252.56 299.806 251.28ZM288.826 234.84C287.866 234.84 287.086 235.32 286.486 236.28C285.926 237.24 285.646 238.38 285.646 239.7C285.646 242.42 286.006 244.8 286.726 246.84L290.566 244.02C291.606 243.26 292.126 242.16 292.126 240.72C292.126 240.2 292.086 239.66 292.006 239.1C291.926 238.5 291.766 237.86 291.526 237.18C291.326 236.5 290.986 235.94 290.506 235.5C290.026 235.06 289.466 234.84 288.826 234.84ZM345.152 253.98C345.273 254.98 345.493 255.8 345.813 256.44C346.173 257.04 346.513 257.44 346.833 257.64C347.153 257.8 347.433 258.02 347.673 258.3C347.953 258.54 348.093 258.84 348.093 259.2C348.093 260.64 345.593 261.36 340.593 261.36C336.953 261.36 334.893 260.48 334.413 258.72C332.853 260.64 330.393 261.6 327.033 261.6C323.673 261.6 320.933 260.84 318.813 259.32C316.693 257.76 315.633 255.48 315.633 252.48C315.633 249.56 316.673 247.3 318.753 245.7C320.833 244.06 323.373 243.24 326.373 243.24C328.653 243.24 330.573 243.68 332.133 244.56C331.653 239.96 331.253 237.24 330.933 236.4C330.493 235.28 329.733 234.72 328.653 234.72C327.893 234.72 327.273 235.16 326.793 236.04C326.313 236.88 325.953 237.84 325.713 238.92C325.513 239.96 325.013 240.92 324.213 241.8C323.413 242.64 322.353 243.06 321.033 243.06C319.633 243.06 318.493 242.66 317.613 241.86C316.733 241.06 316.292 240.02 316.292 238.74C316.292 237.06 316.913 235.66 318.153 234.54C319.433 233.42 320.953 232.66 322.713 232.26C324.513 231.82 326.493 231.6 328.653 231.6C332.773 231.6 336.193 232.7 338.913 234.9C341.673 237.06 343.293 239.96 343.773 243.6L345.152 253.98ZM330.873 258.24C331.593 258.24 332.153 257.82 332.553 256.98C332.953 256.14 333.113 255.26 333.033 254.34L332.793 251.52C332.393 248.32 331.413 246.72 329.853 246.72C329.253 246.72 328.753 247.04 328.353 247.68C327.993 248.32 327.813 249.14 327.813 250.14C327.813 252.42 328.073 254.34 328.593 255.9C329.153 257.46 329.913 258.24 330.873 258.24ZM389.98 232.2C390.98 232.2 391.48 232.62 391.48 233.46V233.7C391.48 234.3 390.92 235.16 389.8 236.28C388.68 237.36 387.94 238.4 387.58 239.4L380.44 259.32C380.04 260.44 379.28 261 378.16 261H375.4C374.2 261 373.44 260.44 373.12 259.32L368.68 244.74L364.24 259.32C363.92 260.44 363.16 261 361.96 261H360.04C358.96 261 358.2 260.44 357.76 259.32L349.42 239.4C349.06 238.56 348.4 237.58 347.44 236.46C346.52 235.3 346.06 234.38 346.06 233.7V233.46C346.06 232.62 346.56 232.2 347.56 232.2H360.76C361.2 232.2 361.54 232.32 361.78 232.56C362.06 232.8 362.2 233.12 362.2 233.52V233.76C362.2 234.2 361.94 234.72 361.42 235.32C360.94 235.88 360.56 236.42 360.28 236.94C360 237.42 360 238.3 360.28 239.58L363.52 249.6L367.96 233.88C368.24 232.96 368.78 232.5 369.58 232.5L373.6 232.44C374.48 232.44 375.04 232.86 375.28 233.7L379.66 249.36L382.6 240.78C383 239.14 383 238 382.6 237.36C382.2 236.68 381.66 236.02 380.98 235.38C380.3 234.74 379.96 234.2 379.96 233.76V233.52C379.96 232.64 380.46 232.2 381.46 232.2H389.98ZM415.704 251.28C416.144 250.8 416.644 250.66 417.204 250.86C417.764 251.06 418.044 251.5 418.044 252.18C418.044 254.18 416.904 256.26 414.624 258.42C412.384 260.54 409.464 261.6 405.864 261.6C401.384 261.6 397.744 260.2 394.944 257.4C392.184 254.6 390.804 250.94 390.804 246.42C390.804 242.06 392.264 238.5 395.184 235.74C398.144 232.98 401.644 231.6 405.684 231.6C409.364 231.6 412.204 232.42 414.204 234.06C416.244 235.7 417.264 237.54 417.264 239.58C417.264 241.06 416.584 242.24 415.224 243.12L404.364 250.2C405.924 252.2 407.924 253.2 410.364 253.2C412.644 253.2 414.424 252.56 415.704 251.28ZM404.724 234.84C403.764 234.84 402.984 235.32 402.384 236.28C401.824 237.24 401.544 238.38 401.544 239.7C401.544 242.42 401.904 244.8 402.624 246.84L406.464 244.02C407.504 243.26 408.024 242.16 408.024 240.72C408.024 240.2 407.984 239.66 407.904 239.1C407.824 238.5 407.664 237.86 407.424 237.18C407.224 236.5 406.884 235.94 406.404 235.5C405.924 235.06 405.364 234.84 404.724 234.84ZM433.602 261.54C429.722 261.54 426.502 260.92 423.942 259.68C421.422 258.4 420.162 256.66 420.162 254.46C420.162 253.02 420.602 251.96 421.482 251.28C422.362 250.56 423.502 250.2 424.902 250.2C426.382 250.2 427.562 250.64 428.442 251.52C429.362 252.4 429.942 253.38 430.182 254.46C430.462 255.5 430.862 256.46 431.382 257.34C431.942 258.22 432.682 258.66 433.602 258.66C435.162 258.66 435.942 257.74 435.942 255.9C435.942 254.5 435.402 253.38 434.322 252.54C433.282 251.66 432.022 251 430.542 250.56C429.062 250.08 427.562 249.56 426.042 249C424.562 248.4 423.282 247.44 422.202 246.12C421.162 244.8 420.642 243.08 420.642 240.96C420.642 238.2 421.842 235.96 424.242 234.24C426.642 232.48 429.782 231.6 433.662 231.6C437.462 231.6 440.562 232.3 442.962 233.7C445.362 235.06 446.562 236.78 446.562 238.86C446.562 239.98 446.122 240.94 445.242 241.74C444.362 242.54 443.282 242.94 442.002 242.94C440.802 242.94 439.822 242.66 439.062 242.1C438.302 241.5 437.762 240.8 437.442 240C437.122 239.2 436.842 238.4 436.602 237.6C436.362 236.76 436.062 236.06 435.702 235.5C435.382 234.9 434.922 234.6 434.322 234.6C433.042 234.6 432.402 235.58 432.402 237.54C432.402 239.06 432.902 240.3 433.902 241.26C434.902 242.18 436.102 242.9 437.502 243.42C438.942 243.9 440.362 244.42 441.762 244.98C443.202 245.54 444.422 246.46 445.422 247.74C446.422 248.98 446.922 250.58 446.922 252.54C446.922 255.18 445.742 257.34 443.382 259.02C441.022 260.7 437.762 261.54 433.602 261.54ZM466.078 261.6C461.558 261.6 457.638 260.2 454.318 257.4C450.998 254.56 449.338 250.96 449.338 246.6C449.338 242.24 450.998 238.66 454.318 235.86C457.638 233.02 461.558 231.6 466.078 231.6C470.638 231.6 474.558 233.02 477.838 235.86C481.118 238.66 482.758 242.24 482.758 246.6C482.758 250.96 481.118 254.56 477.838 257.4C474.558 260.2 470.638 261.6 466.078 261.6ZM467.518 258.36C468.638 258.36 469.378 257.86 469.738 256.86C470.098 255.82 470.278 254.22 470.278 252.06C470.278 250.62 470.078 248.66 469.678 246.18C469.318 243.66 468.618 241.14 467.578 238.62C466.578 236.1 465.398 234.84 464.038 234.84C462.958 234.84 462.238 235.34 461.878 236.34C461.518 237.34 461.338 238.98 461.338 241.26C461.338 242.86 461.518 244.92 461.878 247.44C462.278 249.92 462.978 252.36 463.978 254.76C465.018 257.16 466.198 258.36 467.518 258.36ZM536.624 253.86C536.704 254.9 537.084 255.98 537.764 257.1C538.444 258.18 538.784 259 538.784 259.56V259.8C538.784 260.64 538.284 261.06 537.284 261.06H524.024C523.024 261.06 522.524 260.64 522.524 259.8V259.56C522.524 259.04 522.904 258.24 523.664 257.16C524.424 256.04 524.764 254.94 524.684 253.86L524.084 243.48C523.924 240.72 523.604 238.78 523.124 237.66C522.644 236.54 521.884 235.98 520.844 235.98C518.964 235.98 518.024 237.68 518.024 241.08C518.144 241.84 518.204 242.66 518.204 243.54V253.86C518.204 254.94 518.564 256.04 519.284 257.16C520.004 258.24 520.364 259.04 520.364 259.56V259.8C520.364 260.64 519.864 261.06 518.864 261.06H505.604C504.604 261.06 504.104 260.64 504.104 259.8V259.56C504.104 259.04 504.464 258.24 505.184 257.16C505.904 256.04 506.264 254.94 506.264 253.86V242.7C506.264 238.22 505.184 235.98 503.024 235.98C500.944 235.98 499.904 237.64 499.904 240.96V253.86C499.904 254.94 500.364 256.04 501.284 257.16C502.204 258.24 502.664 259.04 502.664 259.56V259.8C502.664 260.64 502.164 261.06 501.164 261.06H486.704C485.704 261.06 485.204 260.64 485.204 259.8V259.56C485.204 259.04 485.664 258.24 486.584 257.16C487.504 256.04 487.964 254.94 487.964 253.86V243.72C487.964 242.88 487.684 242.16 487.124 241.56C486.564 240.92 486.004 240.36 485.444 239.88C484.884 239.36 484.604 238.86 484.604 238.38V238.14C484.604 237.54 485.124 237 486.164 236.52L496.304 231.84C497.064 231.48 497.664 231.48 498.104 231.84C498.544 232.2 498.764 232.72 498.764 233.4V235.02C500.644 232.74 503.204 231.6 506.444 231.6C510.844 231.6 514.084 233.12 516.164 236.16C517.884 233.12 520.784 231.6 524.864 231.6C527.744 231.6 530.204 232.54 532.244 234.42C534.284 236.3 535.484 239.46 535.844 243.9L536.624 253.86ZM565.353 251.28C565.793 250.8 566.293 250.66 566.853 250.86C567.413 251.06 567.693 251.5 567.693 252.18C567.693 254.18 566.553 256.26 564.273 258.42C562.033 260.54 559.113 261.6 555.513 261.6C551.033 261.6 547.393 260.2 544.593 257.4C541.833 254.6 540.453 250.94 540.453 246.42C540.453 242.06 541.913 238.5 544.833 235.74C547.793 232.98 551.293 231.6 555.333 231.6C559.013 231.6 561.853 232.42 563.853 234.06C565.893 235.7 566.913 237.54 566.913 239.58C566.913 241.06 566.233 242.24 564.873 243.12L554.013 250.2C555.573 252.2 557.573 253.2 560.013 253.2C562.293 253.2 564.073 252.56 565.353 251.28ZM554.373 234.84C553.413 234.84 552.633 235.32 552.033 236.28C551.473 237.24 551.193 238.38 551.193 239.7C551.193 242.42 551.553 244.8 552.273 246.84L556.113 244.02C557.153 243.26 557.673 242.16 557.673 240.72C557.673 240.2 557.633 239.66 557.553 239.1C557.473 238.5 557.313 237.86 557.073 237.18C556.873 236.5 556.533 235.94 556.053 235.5C555.573 235.06 555.013 234.84 554.373 234.84ZM574.371 270.36C573.611 270.8 572.911 270.68 572.271 270C571.671 269.36 571.671 268.74 572.271 268.14C573.231 267.14 573.871 266.46 574.191 266.1C574.551 265.74 574.891 265.28 575.211 264.72C575.531 264.16 575.711 263.6 575.751 263.04C575.831 262.08 575.551 261.6 574.911 261.6C573.631 261.6 572.531 261.02 571.611 259.86C570.691 258.7 570.231 257.24 570.231 255.48C570.231 253.36 570.831 251.66 572.031 250.38C573.271 249.06 574.911 248.4 576.951 248.4C578.871 248.4 580.531 249.12 581.931 250.56C583.331 252 584.031 253.96 584.031 256.44C584.031 261.92 580.811 266.56 574.371 270.36ZM126.46 313.8C126.46 314.88 126.86 315.98 127.66 317.1C128.5 318.18 128.92 318.98 128.92 319.5V319.74C128.92 320.58 128.42 321 127.42 321H117.88C116.8 321 116.22 320.48 116.14 319.44C114.38 320.88 112.12 321.6 109.36 321.6C105.48 321.6 102.14 320.3 99.34 317.7C96.54 315.06 95.14 311.36 95.14 306.6C95.14 302.24 96.54 298.66 99.34 295.86C102.18 293.02 105.52 291.6 109.36 291.6C111.6 291.6 113.44 292.02 114.88 292.86V286.08C114.88 285.4 114.7 284.8 114.34 284.28C113.98 283.76 113.6 283.36 113.2 283.08C112.8 282.76 112.42 282.4 112.06 282C111.7 281.6 111.52 281.2 111.52 280.8V280.62C111.52 279.74 112.02 279.16 113.02 278.88L123.58 275.76C125.5 275.2 126.46 275.72 126.46 277.32V313.8ZM112.06 318.42C112.9 318.46 113.58 318.12 114.1 317.4C114.62 316.68 114.88 315.7 114.88 314.46V302.1C114.88 300.22 114.4 298.54 113.44 297.06C112.52 295.54 111.5 294.78 110.38 294.78C108.18 294.78 106.98 296.86 106.78 301.02C106.7 302.54 106.8 304.6 107.08 307.2C107.4 309.76 108 312.26 108.88 314.7C109.76 317.1 110.82 318.34 112.06 318.42ZM147.562 321.6C143.042 321.6 139.122 320.2 135.802 317.4C132.482 314.56 130.822 310.96 130.822 306.6C130.822 302.24 132.482 298.66 135.802 295.86C139.122 293.02 143.042 291.6 147.562 291.6C152.122 291.6 156.042 293.02 159.322 295.86C162.602 298.66 164.242 302.24 164.242 306.6C164.242 310.96 162.602 314.56 159.322 317.4C156.042 320.2 152.122 321.6 147.562 321.6ZM149.002 318.36C150.122 318.36 150.862 317.86 151.222 316.86C151.582 315.82 151.762 314.22 151.762 312.06C151.762 310.62 151.562 308.66 151.162 306.18C150.802 303.66 150.102 301.14 149.062 298.62C148.062 296.1 146.882 294.84 145.522 294.84C144.442 294.84 143.722 295.34 143.362 296.34C143.002 297.34 142.822 298.98 142.822 301.26C142.822 302.86 143.002 304.92 143.362 307.44C143.762 309.92 144.462 312.36 145.462 314.76C146.502 317.16 147.682 318.36 149.002 318.36ZM200.229 313.86C200.309 314.9 200.689 315.98 201.369 317.1C202.049 318.18 202.389 319 202.389 319.56V319.8C202.389 320.64 201.889 321.06 200.889 321.06H187.629C186.629 321.06 186.129 320.64 186.129 319.8V319.56C186.129 319.04 186.509 318.24 187.269 317.16C188.029 316.04 188.369 314.94 188.289 313.86L187.689 303.48C187.529 300.64 187.229 298.68 186.789 297.6C186.349 296.52 185.549 295.98 184.389 295.98C182.429 295.98 181.449 297.7 181.449 301.14V313.86C181.449 314.94 181.909 316.04 182.829 317.16C183.749 318.24 184.209 319.04 184.209 319.56V319.8C184.209 320.64 183.709 321.06 182.709 321.06H168.249C167.249 321.06 166.749 320.64 166.749 319.8V319.56C166.749 319.04 167.209 318.24 168.129 317.16C169.049 316.04 169.509 314.94 169.509 313.86V303.72C169.509 302.88 169.229 302.16 168.669 301.56C168.109 300.92 167.549 300.36 166.989 299.88C166.429 299.36 166.149 298.86 166.149 298.38V298.14C166.149 297.62 166.669 297.08 167.709 296.52L177.129 291.84C177.929 291.48 178.529 291.48 178.929 291.84C179.369 292.16 179.589 292.68 179.589 293.4V295.86C181.189 293.02 183.989 291.6 187.989 291.6C190.949 291.6 193.509 292.56 195.669 294.48C197.829 296.36 199.089 299.5 199.449 303.9L200.229 313.86ZM205.282 295.98C204.522 296.42 203.822 296.32 203.182 295.68C202.582 295 202.582 294.36 203.182 293.76C204.142 292.76 204.782 292.08 205.102 291.72C205.462 291.36 205.802 290.9 206.122 290.34C206.442 289.78 206.622 289.22 206.662 288.66C206.742 287.7 206.462 287.22 205.822 287.22C204.542 287.22 203.442 286.64 202.522 285.48C201.602 284.32 201.142 282.86 201.142 281.1C201.142 278.98 201.742 277.28 202.942 276C204.182 274.68 205.822 274.02 207.862 274.02C209.782 274.02 211.442 274.74 212.842 276.18C214.242 277.62 214.942 279.58 214.942 282.06C214.942 287.54 211.722 292.18 205.282 295.98ZM228.689 321.6C225.529 321.6 223.009 320.6 221.129 318.6C219.289 316.56 218.369 313.68 218.369 309.96V296.7H216.569C216.129 296.7 215.769 296.56 215.489 296.28C215.209 295.96 215.069 295.6 215.069 295.2V293.7C215.069 292.7 215.569 292.2 216.569 292.2H217.409C219.369 292.2 221.089 291.64 222.569 290.52C224.049 289.4 225.009 287.92 225.449 286.08C225.729 284.96 226.329 284.4 227.249 284.4H228.869C229.389 284.4 229.809 284.56 230.129 284.88C230.449 285.16 230.609 285.56 230.609 286.08V292.2H236.249C236.689 292.2 237.049 292.34 237.329 292.62C237.609 292.9 237.749 293.26 237.749 293.7V295.2C237.749 295.6 237.609 295.96 237.329 296.28C237.049 296.56 236.689 296.7 236.249 296.7H230.609V310.2C230.609 311.04 230.829 311.72 231.269 312.24C231.749 312.72 232.349 312.96 233.069 312.96C234.509 312.96 235.769 312.32 236.849 311.04C237.329 310.52 237.849 310.34 238.409 310.5C238.969 310.62 239.249 310.98 239.249 311.58C239.249 314.22 238.309 316.56 236.429 318.6C234.549 320.6 231.969 321.6 228.689 321.6ZM283.678 294.3C283.678 294.9 283.518 295.4 283.198 295.8C282.878 296.2 282.538 296.46 282.178 296.58C281.858 296.7 281.358 296.84 280.678 297C279.998 297.12 279.518 297.24 279.238 297.36C280.998 299.68 281.878 302.08 281.878 304.56C281.878 309.08 279.798 312.48 275.638 314.76C278.198 315.28 279.978 316.04 280.978 317.04C281.978 318.04 282.478 319.32 282.478 320.88C282.478 323.12 280.918 324.98 277.798 326.46C274.678 327.94 270.858 328.68 266.338 328.68C256.858 328.68 252.118 326.18 252.118 321.18C252.118 320.02 252.518 319 253.318 318.12C254.118 317.2 255.258 316.74 256.738 316.74C258.058 316.74 259.178 317.2 260.098 318.12C261.018 319 261.678 319.98 262.078 321.06C262.518 322.18 263.098 323.2 263.818 324.12C264.538 325.04 265.378 325.52 266.338 325.56C267.658 325.6 268.678 325.18 269.398 324.3C270.118 323.46 270.478 322.34 270.478 320.94C270.478 318.58 269.998 317.14 269.038 316.62C268.078 316.7 267.378 316.74 266.938 316.74C262.538 316.74 258.938 315.62 256.138 313.38C253.338 311.14 251.938 308.2 251.938 304.56C251.938 300.68 253.338 297.56 256.138 295.2C258.938 292.8 262.538 291.6 266.938 291.6C268.098 291.6 269.898 291.7 272.338 291.9C274.818 292.1 276.898 292.2 278.578 292.2C280.698 292.2 282.078 292.36 282.718 292.68C283.358 292.96 283.678 293.5 283.678 294.3ZM263.158 299.04C263.158 302.12 263.718 305.3 264.838 308.58C265.958 311.82 267.198 313.44 268.558 313.44C269.958 313.44 270.658 312.04 270.658 309.24C270.658 306.6 270.098 303.54 268.978 300.06C267.898 296.58 266.658 294.84 265.258 294.84C263.858 294.84 263.158 296.24 263.158 299.04ZM299.971 287.34C298.571 288.62 296.751 289.26 294.511 289.26C292.271 289.26 290.431 288.62 288.991 287.34C287.591 286.06 286.891 284.48 286.891 282.6C286.891 280.72 287.591 279.16 288.991 277.92C290.431 276.64 292.271 276 294.511 276C296.751 276 298.571 276.64 299.971 277.92C301.411 279.16 302.131 280.72 302.131 282.6C302.131 284.48 301.411 286.06 299.971 287.34ZM287.311 321C286.311 321 285.811 320.58 285.811 319.74V319.5C285.811 318.98 286.211 318.18 287.011 317.1C287.851 315.98 288.271 314.88 288.271 313.8V304.14C288.271 303.06 287.851 302 287.011 300.96C286.211 299.88 285.811 299.12 285.811 298.68V298.44C285.811 297.92 286.311 297.42 287.311 296.94L297.571 291.9C298.451 291.5 299.151 291.46 299.671 291.78C300.231 292.1 300.511 292.6 300.511 293.28V313.8C300.511 314.88 300.971 315.98 301.891 317.1C302.811 318.18 303.271 318.98 303.271 319.5V319.74C303.271 320.58 302.771 321 301.771 321H287.311ZM336.519 292.2C337.519 292.2 338.019 292.62 338.019 293.46V293.7C338.019 294.3 337.399 295.16 336.159 296.28C334.919 297.4 334.119 298.44 333.759 299.4L326.499 319.32C326.099 320.44 325.339 321 324.219 321H317.859C316.859 321 316.099 320.44 315.579 319.32L307.059 299.4C306.739 298.64 306.099 297.68 305.139 296.52C304.179 295.32 303.699 294.38 303.699 293.7V293.46C303.699 292.62 304.199 292.2 305.199 292.2H320.559C320.999 292.2 321.339 292.32 321.579 292.56C321.859 292.8 321.999 293.12 321.999 293.52V293.76C321.999 294.2 321.819 294.72 321.459 295.32C321.139 295.92 320.899 296.46 320.739 296.94C320.619 297.42 320.739 298.3 321.099 299.58L325.359 311.1L328.719 301.32C329.199 299.44 329.279 298.14 328.959 297.42C328.639 296.7 328.159 296.02 327.519 295.38C326.879 294.7 326.559 294.16 326.559 293.76V293.52C326.559 292.64 327.059 292.2 328.059 292.2H336.519ZM362.032 311.28C362.472 310.8 362.972 310.66 363.532 310.86C364.092 311.06 364.372 311.5 364.372 312.18C364.372 314.18 363.232 316.26 360.952 318.42C358.712 320.54 355.792 321.6 352.192 321.6C347.712 321.6 344.072 320.2 341.272 317.4C338.512 314.6 337.132 310.94 337.132 306.42C337.132 302.06 338.592 298.5 341.512 295.74C344.472 292.98 347.972 291.6 352.012 291.6C355.692 291.6 358.532 292.42 360.532 294.06C362.572 295.7 363.592 297.54 363.592 299.58C363.592 301.06 362.912 302.24 361.552 303.12L350.692 310.2C352.252 312.2 354.252 313.2 356.692 313.2C358.972 313.2 360.752 312.56 362.032 311.28ZM351.052 294.84C350.092 294.84 349.312 295.32 348.712 296.28C348.152 297.24 347.872 298.38 347.872 299.7C347.872 302.42 348.232 304.8 348.952 306.84L352.792 304.02C353.832 303.26 354.352 302.16 354.352 300.72C354.352 300.2 354.312 299.66 354.232 299.1C354.152 298.5 353.992 297.86 353.752 297.18C353.552 296.5 353.212 295.94 352.732 295.5C352.252 295.06 351.692 294.84 351.052 294.84ZM409.479 313.98C409.479 315.1 409.599 315.96 409.839 316.56C410.119 317.12 410.399 317.44 410.679 317.52C410.959 317.56 411.219 317.72 411.459 318C411.739 318.24 411.879 318.64 411.879 319.2C411.879 320.64 409.599 321.36 405.039 321.36C403.079 321.36 401.639 321.12 400.719 320.64C399.799 320.16 399.239 319.36 399.039 318.24C397.479 320.48 394.739 321.6 390.819 321.6C387.739 321.6 385.099 320.58 382.899 318.54C380.699 316.5 379.599 313.74 379.599 310.26V300.42C379.599 299.34 379.179 298.28 378.339 297.24C377.539 296.16 377.139 295.4 377.139 294.96V294.72C377.139 294.36 377.279 294.04 377.559 293.76C377.839 293.44 378.199 293.26 378.639 293.22L388.599 291.9C390.719 291.66 391.779 292.12 391.779 293.28L391.539 311.52C391.499 313.64 391.719 315.12 392.199 315.96C392.679 316.8 393.459 317.22 394.539 317.22C395.379 317.22 396.079 316.74 396.639 315.78C397.239 314.82 397.539 313.58 397.539 312.06V300.42C397.539 299.34 397.119 298.28 396.279 297.24C395.479 296.16 395.079 295.4 395.079 294.96V294.72C395.079 294.36 395.219 294.04 395.499 293.76C395.779 293.44 396.139 293.26 396.579 293.22L406.539 291.9C408.499 291.66 409.479 292.12 409.479 293.28V313.98ZM433.39 291.6C435.71 291.6 437.91 292.1 439.99 293.1C442.11 294.06 443.91 295.68 445.39 297.96C446.87 300.24 447.61 302.96 447.61 306.12C447.61 310.76 446.21 314.5 443.41 317.34C440.61 320.18 437.27 321.6 433.39 321.6C431.23 321.6 429.43 321.18 427.99 320.34V326.22C427.99 327.3 428.45 328.38 429.37 329.46C430.29 330.58 430.75 331.4 430.75 331.92V332.16C430.75 333 430.25 333.42 429.25 333.42H415.15C414.15 333.42 413.65 333 413.65 332.16V331.92C413.65 331.4 414.05 330.58 414.85 329.46C415.69 328.38 416.11 327.3 416.11 326.22V303.6C416.11 302.6 415.59 301.66 414.55 300.78C413.55 299.9 413.05 299.18 413.05 298.62V298.26C413.05 297.54 413.55 296.92 414.55 296.4L423.43 292.02C424.43 291.62 425.13 291.56 425.53 291.84C425.97 292.08 426.19 292.56 426.19 293.28V294.48C427.67 292.56 430.07 291.6 433.39 291.6ZM432.37 318.42C434.61 318.42 435.73 316.34 435.73 312.18C435.73 309.9 435.59 307.54 435.31 305.1C435.07 302.66 434.53 300.34 433.69 298.14C432.85 295.9 431.81 294.78 430.57 294.78C428.85 294.78 427.99 296.1 427.99 298.74V309.9C427.99 312.46 428.43 314.52 429.31 316.08C430.19 317.64 431.21 318.42 432.37 318.42ZM455.145 305.46C453.945 301.14 453.025 296.82 452.385 292.5C451.745 288.14 451.425 284.66 451.425 282.06C451.425 280.34 452.425 279.12 454.425 278.4C456.465 277.68 458.485 277.68 460.485 278.4C462.525 279.08 463.545 280.28 463.545 282C463.545 289.64 462.305 297.46 459.825 305.46C459.585 306.22 458.785 306.6 457.425 306.6C456.105 306.6 455.345 306.22 455.145 305.46ZM462.525 320.28C461.205 321.32 459.525 321.84 457.485 321.84C455.445 321.84 453.765 321.32 452.445 320.28C451.125 319.2 450.465 317.64 450.465 315.6C450.465 313.56 451.125 312.02 452.445 310.98C453.765 309.9 455.445 309.36 457.485 309.36C459.525 309.36 461.205 309.9 462.525 310.98C463.845 312.02 464.505 313.56 464.505 315.6C464.505 317.64 463.845 319.2 462.525 320.28Z" fill="#F0F0F0"/>
<g clip-path="url(#clip0)">
<path d="M621.529 676.221C621.529 697.744 503.347 777 355.751 777C208.154 777 91.9709 692.539 91.9709 671.016C91.9709 649.494 208.154 699.049 355.751 699.049C503.347 699.049 621.529 654.679 621.529 676.221Z" fill="#3F3D56"/>
<path d="M622.994 667.63C622.994 667.917 622.994 668.203 622.994 668.494C622.67 677.439 617.701 686.335 608.633 692.617C599.013 699.272 586.113 702.774 572.87 705.01C570.799 705.359 568.718 705.675 566.642 705.98C565.583 706.126 564.528 706.271 563.478 706.407C533.995 710.288 503.893 711.03 473.932 711.743C442.591 712.519 411.221 713.286 379.847 713.683L373.624 713.756C326.021 714.27 278.436 713.839 231.007 711.132C216.287 710.298 201.423 709.192 186.829 707.329C184.748 707.073 182.674 706.794 180.606 706.49C161.251 703.71 142.472 699.446 125.362 692.524C121.323 690.908 117.373 689.078 113.527 687.043C102.78 681.324 93.717 674.092 89.2315 665.215C86.6222 660.01 85.5479 654.168 86.1347 648.373C86.3266 646.266 86.6874 644.179 87.2137 642.13C88.5628 637.061 90.6203 632.21 93.3251 627.719C100.312 615.873 110.807 605.255 119.856 594.132C139.172 570.427 151.753 540.473 133.927 516.176C128.812 509.196 121.419 503.079 117.253 495.779C115.024 491.835 113.634 487.471 113.169 482.963C112.943 480.89 112.857 478.804 112.912 476.72C113.11 471.853 113.717 467.011 114.727 462.245C117.63 447.344 123.054 431.278 139.806 421.984C151.24 415.64 165.814 413.67 180.592 414.044C182.666 414.092 184.74 414.189 186.815 414.335C192.481 414.708 198.113 415.397 203.552 416.275C237.152 421.654 268.164 432.894 299.47 443.041C323.306 450.764 347.993 457.986 373.61 461.43C375.681 461.707 377.752 461.964 379.832 462.187C385.837 462.847 391.895 463.283 398.002 463.463C428.394 464.336 463.853 457.739 484.035 440.606C503.53 424.046 540.092 422.712 566.628 432.603L567.025 432.753C569.021 433.516 570.957 434.338 572.831 435.217C592.384 444.434 605.483 460.218 607.331 476.735C607.563 478.786 607.618 480.854 607.496 482.914C607.498 482.935 607.498 482.957 607.496 482.977C606.228 503.297 589.66 520.362 572.836 537.456C570.755 539.566 568.67 541.676 566.608 543.801C561.15 549.418 555.861 555.079 551.274 560.905C549.18 563.545 547.253 566.316 545.507 569.199C543.901 571.859 542.53 574.654 541.408 577.552C540.225 580.553 539.464 583.703 539.148 586.914C538.677 591.516 539.516 596.158 541.568 600.302L541.611 600.399C546.102 609.325 555.605 615.65 566.608 621.257C568.636 622.295 570.721 623.304 572.836 624.304C584.768 629.95 597.625 635.194 607.399 642.164C610.034 644.001 612.493 646.08 614.744 648.373C615.661 649.324 616.527 650.323 617.338 651.366C620.907 655.886 622.893 661.459 622.99 667.223C622.994 667.368 622.994 667.499 622.994 667.63Z" fill="#F27C2E"/>
<path d="M622.994 667.63C622.994 667.917 622.994 668.203 622.994 668.494C622.67 677.439 617.701 686.335 608.633 692.617C599.013 699.272 586.113 702.774 572.87 705.01C570.799 705.359 568.718 705.675 566.642 705.98C565.583 706.126 564.528 706.271 563.478 706.407C533.995 710.288 503.893 711.03 473.932 711.743C442.591 712.519 411.221 713.286 379.847 713.683L373.624 713.756C326.021 714.27 278.436 713.839 231.007 711.132C216.287 710.298 201.423 709.192 186.829 707.329C184.748 707.073 182.674 706.794 180.606 706.49C161.251 703.71 142.472 699.446 125.362 692.524C121.323 690.908 117.373 689.078 113.527 687.043C102.78 681.324 93.717 674.092 89.2315 665.215C86.6222 660.01 85.5479 654.168 86.1347 648.373C86.3266 646.266 86.6874 644.179 87.2137 642.13C88.5628 637.061 90.6203 632.21 93.3251 627.719C100.312 615.873 110.807 605.255 119.856 594.132C139.172 570.427 151.753 540.473 133.927 516.176C128.812 509.196 121.419 503.079 117.253 495.779C115.024 491.835 113.634 487.471 113.169 482.963C112.943 480.89 112.857 478.804 112.912 476.72C113.11 471.853 113.717 467.011 114.727 462.245C117.63 447.344 123.054 431.278 139.806 421.984C151.24 415.64 165.814 413.67 180.592 414.044C182.666 414.092 184.74 414.189 186.815 414.335C192.481 414.708 198.113 415.397 203.552 416.275C237.152 421.654 268.164 432.894 299.47 443.041C323.306 450.764 347.993 457.986 373.61 461.43C375.681 461.707 377.752 461.964 379.832 462.187C385.837 462.847 391.895 463.283 398.002 463.463C428.394 464.336 463.853 457.739 484.035 440.606C503.53 424.046 540.092 422.712 566.628 432.603L567.025 432.753C569.021 433.516 570.957 434.338 572.831 435.217C592.384 444.434 605.483 460.218 607.331 476.735C607.563 478.786 607.618 480.854 607.496 482.914C607.498 482.935 607.498 482.957 607.496 482.977C606.228 503.297 589.66 520.362 572.836 537.456C570.755 539.566 568.67 541.676 566.608 543.801C561.15 549.418 555.861 555.079 551.274 560.905C549.18 563.545 547.253 566.316 545.507 569.199C543.901 571.859 542.53 574.654 541.408 577.552C540.225 580.553 539.464 583.703 539.148 586.914C538.677 591.516 539.516 596.158 541.568 600.302L541.611 600.399C546.102 609.325 555.605 615.65 566.608 621.257C568.636 622.295 570.721 623.304 572.836 624.304C584.768 629.95 597.625 635.194 607.399 642.164C610.034 644.001 612.493 646.08 614.744 648.373C615.661 649.324 616.527 650.323 617.338 651.366C620.907 655.886 622.893 661.459 622.99 667.223C622.994 667.368 622.994 667.499 622.994 667.63Z" fill="url(#paint1_linear)"/>
<path d="M572.856 435.217V537.451C570.775 539.566 568.69 541.676 566.629 543.801V432.603L572.856 435.217Z" fill="#3F3D56"/>
<path d="M607.521 482.914C607.523 482.935 607.523 482.957 607.521 482.977H113.17C112.944 480.905 112.858 478.819 112.913 476.735H607.356C607.588 478.786 607.643 480.854 607.521 482.914Z" fill="#3F3D56"/>
<path d="M202.769 450.652C203.771 450.652 204.583 449.838 204.583 448.833C204.583 447.829 203.771 447.014 202.769 447.014C201.767 447.014 200.954 447.829 200.954 448.833C200.954 449.838 201.767 450.652 202.769 450.652Z" fill="#E7EFFD"/>
<path d="M144.655 447.009C145.657 447.009 146.47 446.195 146.47 445.19C146.47 444.186 145.657 443.371 144.655 443.371C143.653 443.371 142.841 444.186 142.841 445.19C142.841 446.195 143.653 447.009 144.655 447.009Z" fill="#E7EFFD"/>
<path d="M223.266 449.614C223.696 449.614 224.045 449.264 224.045 448.833C224.045 448.402 223.696 448.052 223.266 448.052C222.835 448.052 222.487 448.402 222.487 448.833C222.487 449.264 222.835 449.614 223.266 449.614Z" fill="#E7EFFD"/>
<path d="M164.891 447.795C165.321 447.795 165.67 447.445 165.67 447.014C165.67 446.583 165.321 446.233 164.891 446.233C164.461 446.233 164.112 446.583 164.112 447.014C164.112 447.445 164.461 447.795 164.891 447.795Z" fill="#E7EFFD"/>
<path d="M164.117 502.342C164.547 502.342 164.896 501.992 164.896 501.561C164.896 501.129 164.547 500.78 164.117 500.78C163.686 500.78 163.338 501.129 163.338 501.561C163.338 501.992 163.686 502.342 164.117 502.342Z" fill="#E7EFFD"/>
<path d="M523.428 461.12C523.858 461.12 524.207 460.77 524.207 460.339C524.207 459.908 523.858 459.558 523.428 459.558C522.998 459.558 522.649 459.908 522.649 460.339C522.649 460.77 522.998 461.12 523.428 461.12Z" fill="#E7EFFD"/>
<path d="M259.585 461.838C260.016 461.838 260.364 461.488 260.364 461.057C260.364 460.626 260.016 460.276 259.585 460.276C259.155 460.276 258.806 460.626 258.806 461.057C258.806 461.488 259.155 461.838 259.585 461.838Z" fill="#E7EFFD"/>
<path d="M485.033 460.276C485.463 460.276 485.812 459.926 485.812 459.495C485.812 459.064 485.463 458.714 485.033 458.714C484.602 458.714 484.254 459.064 484.254 459.495C484.254 459.926 484.602 460.276 485.033 460.276Z" fill="#E7EFFD"/>
<path d="M583.1 462.619C583.53 462.619 583.879 462.269 583.879 461.838C583.879 461.407 583.53 461.057 583.1 461.057C582.669 461.057 582.321 461.407 582.321 461.838C582.321 462.269 582.669 462.619 583.1 462.619Z" fill="#E7EFFD"/>
<path d="M622.995 667.63C622.995 667.917 622.995 668.203 622.995 668.494C622.749 677.507 617.769 686.495 608.634 692.82C599.014 699.476 586.114 702.978 572.871 705.214C570.8 705.563 568.719 705.878 566.643 706.184C565.584 706.33 564.529 706.475 563.479 706.611C556.221 707.581 548.924 708.323 541.603 708.944C531.78 709.778 521.909 710.356 512.028 710.783C499.341 711.34 486.63 711.656 473.933 711.971C449.115 712.582 424.277 713.193 399.416 713.615L390.595 713.761L379.833 713.906L373.611 713.979C334.417 714.396 295.281 714.183 256.213 712.582C253.613 712.479 251.018 712.366 248.427 712.243C242.621 711.987 236.814 711.691 231.008 711.355C219.371 710.695 207.642 709.861 196.038 708.624C192.961 708.301 189.896 707.943 186.845 707.552C184.764 707.297 182.69 707.017 180.622 706.713C178.319 706.389 176.025 706.037 173.741 705.655C156.806 702.881 140.455 698.864 125.378 692.743C121.335 691.118 117.38 689.284 113.528 687.247V601.874C115.676 599.376 117.81 596.878 119.862 594.35C122.33 591.314 124.701 588.185 126.878 584.974H173.717V556.039H256.218V619.652H390.595V569.204H545.628C544.054 571.779 542.696 574.48 541.569 577.281V577.552H541.39C540.207 580.553 539.446 583.703 539.13 586.914C538.658 591.516 539.497 596.158 541.549 600.302V600.506L541.593 600.603C546.083 609.528 555.587 615.854 566.59 621.461C568.617 622.499 570.703 623.508 572.817 624.507C584.629 630.095 597.355 635.295 607.09 642.164L607.381 642.368C609.944 644.15 612.342 646.16 614.547 648.373C614.619 648.441 614.682 648.509 614.745 648.577C615.662 649.528 616.527 650.527 617.339 651.57C620.864 656.036 622.847 661.529 622.99 667.223C622.995 667.368 622.995 667.499 622.995 667.63Z" fill="#F27C2E"/>
<path opacity="0.3" d="M622.995 667.63C622.995 667.917 622.995 668.203 622.995 668.494C622.749 677.507 617.769 686.495 608.634 692.82C599.014 699.476 586.114 702.978 572.871 705.214C570.8 705.563 568.719 705.878 566.643 706.184C565.584 706.33 564.529 706.475 563.479 706.611C556.221 707.581 548.924 708.323 541.603 708.944C531.78 709.778 521.909 710.356 512.028 710.783C499.341 711.34 486.63 711.656 473.933 711.971C449.115 712.582 424.277 713.193 399.416 713.615L390.595 713.761L379.833 713.906L373.611 713.979C334.417 714.396 295.281 714.183 256.213 712.582C253.613 712.479 251.018 712.366 248.427 712.243C242.621 711.987 236.814 711.691 231.008 711.355C219.371 710.695 207.642 709.861 196.038 708.624C192.961 708.301 189.896 707.943 186.845 707.552C184.764 707.297 182.69 707.017 180.622 706.713C178.319 706.389 176.025 706.037 173.741 705.655C156.806 702.881 140.455 698.864 125.378 692.743C121.335 691.118 117.38 689.284 113.528 687.247V601.874C115.676 599.376 117.81 596.878 119.862 594.35C122.33 591.314 124.701 588.185 126.878 584.974H173.717V556.039H256.218V619.652H390.595V569.204H545.628C544.054 571.779 542.696 574.48 541.569 577.281V577.552H541.39C540.207 580.553 539.446 583.703 539.13 586.914C538.658 591.516 539.497 596.158 541.549 600.302V600.506L541.593 600.603C546.083 609.528 555.587 615.854 566.59 621.461C568.617 622.499 570.703 623.508 572.817 624.507C584.629 630.095 597.355 635.295 607.09 642.164L607.381 642.368C609.944 644.15 612.342 646.16 614.547 648.373C614.619 648.441 614.682 648.509 614.745 648.577C615.662 649.528 616.527 650.527 617.339 651.57C620.864 656.036 622.847 661.529 622.99 667.223C622.995 667.368 622.995 667.499 622.995 667.63Z" fill="black"/>
<path opacity="0.4" d="M142.754 596.771H128.915V606.133H142.754V596.771Z" fill="black"/>
<path opacity="0.4" d="M164.896 596.771H151.057V606.133H164.896V596.771Z" fill="black"/>
<path opacity="0.4" d="M419.138 577.528H405.3V586.89H419.138V577.528Z" fill="black"/>
<path opacity="0.4" d="M456.498 577.528H442.66V586.89H456.498V577.528Z" fill="black"/>
<path opacity="0.4" d="M496.621 577.528H482.783V586.89H496.621V577.528Z" fill="black"/>
<path opacity="0.4" d="M419.138 606.138H405.3V615.5H419.138V606.138Z" fill="black"/>
<path opacity="0.4" d="M456.498 606.138H442.66V615.5H456.498V606.138Z" fill="black"/>
<path d="M496.621 606.138H482.783V615.5H496.621V606.138Z" fill="#F27C2E"/>
<path opacity="0.4" d="M419.138 634.742H405.3V644.104H419.138V634.742Z" fill="black"/>
<path opacity="0.4" d="M456.498 634.742H442.66V644.104H456.498V634.742Z" fill="black"/>
<path opacity="0.4" d="M496.621 634.742H482.783V644.104H496.621V634.742Z" fill="black"/>
<path opacity="0.4" d="M419.138 663.352H405.3V672.714H419.138V663.352Z" fill="black"/>
<path opacity="0.4" d="M456.498 663.352H442.66V672.714H456.498V663.352Z" fill="black"/>
<path opacity="0.4" d="M496.621 663.352H482.783V672.714H496.621V663.352Z" fill="black"/>
<path opacity="0.4" d="M419.138 691.962H405.3V701.324H419.138V691.962Z" fill="black"/>
<path opacity="0.4" d="M456.498 691.962H442.66V701.324H456.498V691.962Z" fill="black"/>
<path opacity="0.4" d="M496.621 691.962H482.783V701.324H496.621V691.962Z" fill="black"/>
<path opacity="0.4" d="M541.409 577.552C540.226 580.553 539.465 583.704 539.149 586.914H531.557V577.552H541.409Z" fill="black"/>
<path d="M545.396 606.138H531.557V615.5H545.396V606.138Z" fill="#F27C2E"/>
<path opacity="0.4" d="M545.396 634.742H531.557V644.104H545.396V634.742Z" fill="black"/>
<path opacity="0.4" d="M545.396 663.352H531.557V672.714H545.396V663.352Z" fill="black"/>
<path opacity="0.4" d="M545.396 691.962H531.557V701.324H545.396V691.962Z" fill="black"/>
<path opacity="0.4" d="M219.55 566.604H205.711V575.966H219.55V566.604Z" fill="black"/>
<path d="M219.55 587.593H205.711V596.955H219.55V587.593Z" fill="#F27C2E"/>
<path opacity="0.4" d="M219.55 608.578H205.711V617.939H219.55V608.578Z" fill="black"/>
<path opacity="0.4" d="M219.55 629.567H205.711V638.929H219.55V629.567Z" fill="black"/>
<path opacity="0.4" d="M219.55 650.551H205.711V659.913H219.55V650.551Z" fill="black"/>
<path opacity="0.4" d="M219.55 671.54H205.711V680.902H219.55V671.54Z" fill="black"/>
<path opacity="0.4" d="M219.55 692.524H205.711V701.886H219.55V692.524Z" fill="black"/>
<path opacity="0.4" d="M142.754 621.238H128.915V630.6H142.754V621.238Z" fill="black"/>
<path opacity="0.4" d="M164.896 621.238H151.057V630.6H164.896V621.238Z" fill="black"/>
<path opacity="0.4" d="M142.754 645.705H128.915V655.067H142.754V645.705Z" fill="black"/>
<path opacity="0.4" d="M164.896 645.705H151.057V655.067H164.896V645.705Z" fill="black"/>
<path opacity="0.4" d="M142.754 670.172H128.915V679.534H142.754V670.172Z" fill="black"/>
<path opacity="0.4" d="M164.896 670.172H151.057V679.534H164.896V670.172Z" fill="black"/>
<path opacity="0.4" d="M353.07 630.561H283.886V638.929H353.07V630.561Z" fill="black"/>
<path opacity="0.4" d="M353.07 657.26H283.886V665.627H353.07V657.26Z" fill="black"/>
<path opacity="0.4" d="M353.07 683.963H283.886V692.33H353.07V683.963Z" fill="black"/>
<path d="M186.815 414.335V707.319C184.735 707.064 182.661 706.784 180.593 706.48V414.044C182.669 414.082 184.74 414.189 186.815 414.335Z" fill="#3F3D56"/>
<path d="M379.833 462.178V713.693L373.611 713.766V461.416C375.682 461.697 377.756 461.951 379.833 462.178Z" fill="#3F3D56"/>
<path d="M614.745 648.373H86.1355C86.3274 646.266 86.6883 644.179 87.2145 642.13H607.419C610.051 643.976 612.504 646.066 614.745 648.373Z" fill="#3F3D56"/>
<path d="M566.629 621.238C568.656 622.276 570.741 623.285 572.856 624.284V705.01C570.785 705.359 568.704 705.675 566.629 705.98V621.238Z" fill="#3F3D56"/>
<path d="M249.226 525.475H248.035V524.281H247.822V525.475H246.632V525.688H247.822V526.881H248.035V525.688H249.226V525.475Z" fill="#E7EFFD"/>
<path d="M496.621 500.673H495.431V499.48H495.213V500.673H494.028V500.886H495.213V502.08H495.431V500.886H496.621V500.673Z" fill="#E7EFFD"/>
<path d="M277.421 495.846H276.231V494.653H276.013V495.846H274.828V496.065H276.013V497.253H276.231V496.065H277.421V495.846Z" fill="#E7EFFD"/>
<path d="M275.607 572.896C276.037 572.896 276.386 572.546 276.386 572.115C276.386 571.683 276.037 571.334 275.607 571.334C275.176 571.334 274.828 571.683 274.828 572.115C274.828 572.546 275.176 572.896 275.607 572.896Z" fill="#E7EFFD"/>
<path d="M453.271 503.123C453.701 503.123 454.05 502.773 454.05 502.342C454.05 501.91 453.701 501.561 453.271 501.561C452.841 501.561 452.492 501.91 452.492 502.342C452.492 502.773 452.841 503.123 453.271 503.123Z" fill="#E7EFFD"/>
<path d="M531.557 540.109C531.987 540.109 532.336 539.76 532.336 539.328C532.336 538.897 531.987 538.548 531.557 538.548C531.127 538.548 530.778 538.897 530.778 539.328C530.778 539.76 531.127 540.109 531.557 540.109Z" fill="#E7EFFD"/>
<path d="M408.953 546.808C409.383 546.808 409.732 546.459 409.732 546.027C409.732 545.596 409.383 545.246 408.953 545.246C408.523 545.246 408.174 545.596 408.174 546.027C408.174 546.459 408.523 546.808 408.953 546.808Z" fill="#E7EFFD"/>
<path d="M432.126 677.477C432.126 677.477 415.524 681.504 408.953 689.037C406.751 691.554 403.485 693.368 400.113 694.664V683.298C403.911 676.905 407.738 669.794 407.738 669.794C407.913 669.445 409.296 664.541 409.296 664.541C412.413 662.086 409.122 653.51 409.122 653.51C409.122 653.51 411.029 648.082 409.988 647.029C408.948 645.977 409.814 643.178 410.68 641.951C411.546 640.723 411.372 639.147 411.372 638.099C411.372 637.051 409.988 635.47 407.738 634.597C405.488 633.724 407.913 632.322 409.296 631.968C410.68 631.614 411.029 628.291 409.471 626.54C407.913 624.789 409.645 623.741 410.506 621.815C411.367 619.889 407.724 620.239 407.724 620.239V602.534C407.724 602.534 406.684 596.756 405.648 586.599C404.613 576.441 400.63 575.394 400.63 575.394C398.497 574.73 396.416 573.909 394.403 572.939C392.283 571.943 390.085 571.124 387.832 570.49C387.832 570.49 383.162 570.49 379.354 569.316C375.546 568.142 373.572 568.059 373.572 568.059L372.948 567.749C368.265 565.362 364.555 561.418 362.452 556.592C362.346 556.35 362.249 556.107 362.152 555.874C363.187 554.738 364.112 553.507 364.915 552.197V552.168C364.915 552.348 364.915 552.527 364.915 552.707C364.915 552.78 364.915 552.857 364.915 552.93C364.915 553.362 364.915 553.793 364.915 554.225V554.269C367.674 549.384 375.677 548.268 376.436 542.69C376.471 542.436 376.489 542.18 376.49 541.924V541.89C376.49 541.705 376.49 541.516 376.49 541.327C376.388 539.77 375.856 538.218 375.754 536.646C375.72 536.196 375.72 535.743 375.754 535.293V535.322C376.112 530.99 379.369 527.221 380.859 523.015C381.26 521.884 381.522 520.708 381.638 519.513V519.479C381.677 519.12 381.701 518.757 381.711 518.393C381.711 518.305 381.711 518.213 381.711 518.126C381.711 517.874 381.711 517.641 381.711 517.369C381.665 515.132 381.163 512.927 380.235 510.891C379.307 508.856 377.973 507.032 376.316 505.533C373.557 503.132 369.914 501.624 368.003 498.485C367.112 497.03 366.677 495.303 365.704 493.896C363.875 491.238 360.517 490.157 357.338 489.773C354.159 489.39 350.893 489.516 347.854 488.517C345.696 487.809 343.741 486.552 341.564 485.922C339.191 485.285 336.681 485.392 334.371 486.227C332.061 487.062 330.061 488.585 328.639 490.593C327.493 492.271 326.743 494.28 325.194 495.589C322.025 498.277 316.649 497.113 313.871 500.207C312.347 501.91 312.173 504.229 312.357 506.596C312.357 506.625 312.357 506.654 312.357 506.683C312.357 506.862 312.391 507.047 312.41 507.231C312.41 507.318 312.41 507.406 312.41 507.488C312.41 507.571 312.41 507.673 312.444 507.765C312.541 508.614 312.662 509.458 312.768 510.273C312.768 510.399 312.797 510.52 312.812 510.646L312.899 511.408C312.899 511.592 312.928 511.776 312.947 511.961C312.967 512.145 312.981 512.446 312.996 512.649C313.01 512.853 312.996 513.008 313.029 513.193C313.34 519.657 311.973 526.092 309.062 531.868C306.444 537.015 302.554 541.759 301.876 547.507C301.771 548.449 301.745 549.398 301.799 550.344C301.799 550.456 301.799 550.568 301.799 550.679C301.799 550.791 301.828 551.019 301.842 551.189C301.857 551.358 301.881 551.581 301.905 551.775C301.905 551.887 301.934 551.999 301.949 552.11C301.983 552.367 302.021 552.624 302.065 552.886L302.094 553.051C302.781 556.971 304.339 560.812 305.167 564.771C305.477 566.23 305.684 567.71 305.786 569.199C305.784 569.209 305.784 569.219 305.786 569.228C305.815 569.713 305.839 570.174 305.854 570.65C305.854 571.29 305.854 571.935 305.854 572.59C304.54 573.096 303.193 573.511 301.823 573.832C299.404 574.181 292.305 580.487 292.823 582.078C293.341 583.669 289.649 594.69 289.547 595.025L283.741 635.286C283.741 635.286 280.658 638.264 281.621 640.19C282.584 642.116 281.432 645.443 281.432 645.443C281.432 645.443 276.226 647.718 277.382 649.12C278.539 650.522 278.011 653.146 277.218 654.897C276.424 656.648 275.123 659.801 277.218 660.325C279.313 660.849 277.576 667.684 277.576 667.684C277.576 667.684 284.878 666.84 284.35 671.186C284.176 672.568 289.455 676.371 291.657 677.895V698.821C288.7 697.991 285.226 696.914 283.01 695.876C278.515 693.776 253.261 689.75 247.726 701.833C242.19 713.916 255.337 730.025 258.623 731.777C258.623 731.777 261.739 734.226 262.431 735.453C263.123 736.681 267.1 737.03 267.1 737.03C267.1 737.03 271.252 738.97 272.287 740.003C273.052 740.78 279.376 742.793 286.871 744.369C286.871 744.369 280.818 758.339 290.694 757.19C300.57 756.04 305.379 751.165 312.342 751.165C315.125 751.165 320.292 750.772 325.494 750.306C326.801 750.538 328.093 750.844 329.365 751.223C332.296 752.147 335.305 752.796 338.356 753.163C338.356 753.163 346.141 757.364 350.293 756.312C350.635 756.215 350.954 756.05 351.231 755.826H351.328C352.083 755.637 352.939 754.856 353.83 753.678C359.022 754.211 364.959 754.968 367.165 755.831C371.467 757.495 402.237 755.191 402.237 755.191C402.237 755.191 422.114 755.584 427.81 757.311C433.505 759.038 431.482 739.678 420.972 737.5C418.167 736.936 415.313 736.654 412.451 736.656C413.179 735.904 413.844 735.093 414.44 734.231C418.224 733.887 420.73 733.673 420.73 733.673C420.73 733.673 430.761 728.769 436.471 725.791C440.116 723.803 443.391 721.197 446.148 718.088C446.148 718.088 451.161 714.935 453.237 713.722C455.313 712.509 456.348 708.469 456.348 708.469C472.079 672.743 432.126 677.477 432.126 677.477ZM387.087 632.666C387.087 632.079 387.087 631.488 387.087 630.901C387.648 631.298 387.566 631.924 387.087 632.661V632.666ZM387.251 645.05C387.672 645.603 388.079 646.108 388.369 646.505C389.487 647.961 387.464 648.64 387.609 651.051C387.643 651.589 387.691 652.341 387.74 653.175C387.527 649.697 387.353 646.835 387.251 645.045V645.05Z" fill="url(#paint2_linear)"/>
<path d="M297.221 700.31C297.221 700.31 287.544 698.054 283.039 695.973C278.534 693.892 253.29 689.905 247.755 701.872C242.219 713.839 255.366 729.783 258.652 731.519C261.937 733.256 293.936 709.492 293.936 709.492L319.175 720.164L324.014 703.603L297.221 700.31Z" fill="#65617D"/>
<path d="M399.953 703.604H325.722C315.879 703.604 307.9 711.602 307.9 721.469V724.054C307.9 733.921 315.879 741.919 325.722 741.919H399.953C409.795 741.919 417.774 733.921 417.774 724.054V721.469C417.774 711.602 409.795 703.604 399.953 703.604Z" fill="#65617D"/>
<path opacity="0.1" d="M417.774 722.759C417.778 726.528 416.67 730.214 414.59 733.353C413.883 734.417 413.072 735.408 412.171 736.312C410.398 738.094 408.291 739.507 405.972 740.47C403.653 741.434 401.166 741.928 398.656 741.924H327.013C321.944 741.924 317.083 739.906 313.498 736.312C309.914 732.719 307.9 727.846 307.9 722.764C307.9 717.682 309.914 712.809 313.498 709.215C317.083 705.622 321.944 703.603 327.013 703.603H398.661C403.729 703.603 408.59 705.621 412.174 709.214C415.758 712.806 417.773 717.678 417.774 722.759Z" fill="black"/>
<path d="M357.952 723.88C357.952 723.88 346.935 726.717 337.944 726.591C328.954 726.465 286.9 743.981 286.9 743.981C286.9 743.981 280.847 757.815 290.723 756.671C300.599 755.526 305.408 750.724 312.371 750.724C319.334 750.724 341.239 748.298 341.239 748.298L362.317 732.688L357.952 723.88Z" fill="#FBBEBE"/>
<path d="M364.848 593.332L345.086 597.237L343.804 597.494C343.804 597.494 328.18 593.332 327.662 592.982C327.144 592.633 312.962 573.478 312.962 573.478C312.962 573.478 320.133 573.555 325.765 570.3C325.968 570.184 326.167 570.058 326.365 569.937C328.842 568.439 330.723 566.126 331.688 563.393C331.789 563.107 331.876 562.811 331.959 562.5C332.559 560.182 332.597 557.373 331.794 553.973C329.859 545.887 334.31 543.66 340.209 543.854C348.73 544.136 360.328 549.466 360.328 549.466C360.478 552.188 361.096 554.862 362.152 557.373C362.244 557.606 362.346 557.858 362.452 558.081C364.568 562.869 368.279 566.77 372.948 569.117L373.572 569.427C374.201 569.728 374.864 570.014 375.551 570.271C390.619 575.995 364.848 593.332 364.848 593.332Z" fill="#FBBEBE"/>
<path opacity="0.1" d="M362.472 558.081C358.714 562.347 353.616 565.198 348.022 566.164C342.427 567.129 336.672 566.152 331.707 563.393C332.559 560.909 332.718 557.819 331.813 553.973C327.144 534.206 360.362 549.467 360.362 549.467C360.526 552.445 361.241 555.366 362.472 558.081Z" fill="black"/>
<path d="M368.709 540.522C368.717 545.193 367.409 549.772 364.935 553.73C364.13 555.029 363.204 556.248 362.172 557.373C357.814 562.162 351.76 565.052 345.304 565.425C344.82 565.459 344.302 565.474 343.799 565.474C338.873 565.474 334.058 564.01 329.963 561.266C325.867 558.523 322.675 554.624 320.79 550.062C318.905 545.499 318.412 540.48 319.373 535.636C320.334 530.793 322.706 526.345 326.189 522.853C329.672 519.361 334.109 516.984 338.94 516.02C343.771 515.057 348.779 515.551 353.33 517.441C357.881 519.331 361.77 522.531 364.507 526.636C367.244 530.742 368.704 535.569 368.704 540.507L368.709 540.522Z" fill="#FBBEBE"/>
<path opacity="0.1" d="M364.848 593.332L345.086 597.237L343.804 597.494C343.804 597.494 328.18 593.332 327.662 592.982C327.144 592.633 312.962 573.478 312.962 573.478C312.962 573.478 320.133 573.555 325.765 570.3C325.968 570.184 326.167 570.058 326.365 569.937C328.155 571.877 334.015 577.363 343.223 577.324C344.405 577.325 345.586 577.239 346.756 577.067C349.533 576.64 352.335 576.364 355.131 576.097C360.488 575.534 368.68 573.905 372.982 569.161L373.606 569.471C374.235 569.772 374.898 570.058 375.585 570.315C390.619 575.995 364.848 593.332 364.848 593.332Z" fill="black"/>
<path d="M387.159 643.959C387.329 647.776 390.101 690.773 390.101 690.773H303.792L304.378 663.701L304.862 642.048L305.016 634.941L305.708 610.324L303.207 608.112L289.61 596.101C289.711 595.781 293.399 584.824 292.886 583.281C292.373 581.738 299.462 575.481 301.886 575.132C303.264 574.811 304.618 574.398 305.941 573.895C310.02 572.44 315.463 570.344 316.063 570.674C316.91 571.13 325.397 570.339 325.741 570.305C325.741 570.305 332.002 578.421 343.189 578.372C344.367 578.366 345.543 578.272 346.707 578.091C349.485 577.664 352.286 577.387 355.083 577.096C360.711 576.509 369.459 574.739 373.557 569.432C373.557 569.432 375.536 569.515 379.34 570.674C383.143 571.833 387.817 571.838 387.817 571.838C390.07 572.466 392.267 573.277 394.388 574.263C396.403 575.222 398.484 576.033 400.616 576.689C400.616 576.689 404.593 577.727 405.634 587.782C406.674 597.838 407.724 603.562 407.724 603.562L387.159 621.417C387.159 621.417 386.99 640.127 387.159 643.959Z" fill="#F27C2E"/>
<path d="M289.615 673.956L292.639 678.811L303.966 682.813L311.752 668.581L304.576 663.726L293.074 659.219L286.503 663.032L289.615 673.956Z" fill="#FBBEBE"/>
<path d="M386.293 697.88C386.293 697.88 402.377 696.667 408.953 689.211C415.529 681.756 432.126 677.768 432.126 677.768C432.126 677.768 472.079 673.087 456.32 708.459C456.32 708.459 455.284 712.446 453.208 713.659C451.132 714.872 446.119 717.996 446.119 717.996L384.75 712.621L386.293 697.88Z" fill="#65617D"/>
<path opacity="0.1" d="M417.774 722.759C417.778 726.528 416.67 730.214 414.59 733.353C404.264 734.27 381.396 736.424 376.611 737.762C370.732 739.397 358.833 736.55 357.532 736.23L357.411 736.2C357.411 736.2 355.117 729.225 354.023 724.762C353.54 722.735 353.283 721.226 353.602 721.115C354.643 720.77 364.156 718.165 363.982 719.659C363.807 721.153 392.53 708.474 392.53 708.474L393.411 719.572C396.329 722.919 417.774 717.942 417.774 722.759Z" fill="black"/>
<path d="M447.348 713.484L446.139 717.996C443.376 721.078 440.101 723.658 436.461 725.621C430.751 728.57 420.721 733.426 420.721 733.426C420.721 733.426 383.883 736.545 377.656 738.277C371.428 740.008 358.456 736.715 358.456 736.715C358.456 736.715 353.617 721.978 354.652 721.629C355.688 721.28 365.201 718.684 365.032 720.174C364.862 721.663 393.58 708.988 393.58 708.988L447.348 713.484Z" fill="#65617D"/>
<path d="M344.781 752.358C344.781 752.358 362.888 753.624 367.194 755.269C371.501 756.913 402.266 754.638 402.266 754.638C402.266 754.638 422.143 755.026 427.838 756.734C433.534 758.441 431.511 739.271 421.001 737.122C410.492 734.973 395.68 738.136 395.68 738.136C395.68 738.136 378.967 735.977 376.94 735.71C374.912 735.444 361.562 735.832 361.562 735.832L344.781 752.358Z" fill="#FBBEBE"/>
<path opacity="0.1" d="M273.628 704.506C273.628 704.506 297.56 706.664 304.141 710.598L273.628 704.506Z" fill="black"/>
<path opacity="0.1" d="M422.903 688.77C422.903 688.77 404.163 693.339 396.817 700.062L422.903 688.77Z" fill="black"/>
<path opacity="0.1" d="M275.021 699.049C275.403 699.175 286.039 700.572 285.782 701.586C285.526 702.599 275.021 699.049 275.021 699.049Z" fill="black"/>
<path opacity="0.1" d="M258.308 725.796L259.692 731C259.692 731 262.803 733.426 263.495 734.639C264.187 735.851 268.165 736.2 268.165 736.2C268.165 736.2 272.316 738.107 273.357 739.145C274.397 740.183 285.632 743.481 296.186 744.869C306.739 746.256 326.278 748.856 330.43 750.243C333.363 751.155 336.374 751.793 339.425 752.15C339.425 752.15 347.206 756.312 351.357 755.274C355.509 754.235 362.598 735.332 362.598 735.332C362.598 735.332 335.273 728.919 334.407 726.839C333.541 724.758 307.252 715.051 307.252 715.051L291.686 715.42L258.308 725.796Z" fill="black"/>
<path d="M257.268 726.315L258.652 731.519C258.652 731.519 261.768 733.945 262.46 735.157C263.152 736.37 267.129 736.719 267.129 736.719C267.129 736.719 271.281 738.626 272.316 739.669C273.352 740.712 284.597 744 295.145 745.388C305.694 746.775 325.243 749.375 329.394 750.762C332.326 751.671 335.336 752.308 338.385 752.664C338.385 752.664 346.17 756.821 350.322 755.783C354.473 754.745 361.562 735.841 361.562 735.841C361.562 735.841 334.233 729.429 333.372 727.348C332.51 725.267 293.936 709.492 293.936 709.492L281.839 706.718L257.268 726.315Z" fill="#65617D"/>
<path d="M292.634 594.37L289.61 596.106L283.803 635.984C283.803 635.984 280.721 638.934 281.684 640.835C282.647 642.736 281.495 646.035 281.495 646.035C281.495 646.035 276.289 648.291 277.445 649.678C278.602 651.065 278.074 653.665 277.281 655.397C276.487 657.129 275.186 660.248 277.281 660.772C279.376 661.295 277.639 668.048 277.639 668.048C277.639 668.048 284.941 667.213 284.413 671.511C284.195 673.248 292.668 678.787 292.668 678.787C292.668 678.787 283.039 661.276 304.61 663.701L306.463 653.83C306.463 653.83 308.317 648.271 306.463 646.554C304.61 644.837 306.879 636.586 306.879 636.586L307.286 600.782L292.634 594.37Z" fill="#F27C2E"/>
<path opacity="0.1" d="M287.936 645.87C288.318 646.506 299.965 647.81 300.725 649.882C301.484 651.953 287.936 645.87 287.936 645.87Z" fill="black"/>
<path opacity="0.1" d="M284.263 655.77C284.263 655.77 285.845 650.818 289.586 651.705C293.326 652.593 284.263 655.77 284.263 655.77Z" fill="black"/>
<path opacity="0.1" d="M282.24 663.003C282.24 663.003 285.023 656.401 288.821 656.91C292.62 657.42 282.24 663.003 282.24 663.003Z" fill="black"/>
<path d="M408.953 662.857L407.738 670.133C407.738 670.133 395.288 693.024 393.038 693.368C390.788 693.713 378.522 678.113 378.522 678.113L375.236 662.852L388.17 660.393L393.914 654.703C393.914 654.703 408.43 656.095 408.953 662.857Z" fill="#FBBEBE"/>
<path d="M403.069 600.268L407.738 603.562V621.073C407.738 621.073 411.372 620.724 410.506 622.635C409.64 624.546 407.913 625.579 409.471 627.316C411.029 629.053 410.68 632.341 409.297 632.691C407.913 633.04 405.493 634.422 407.738 635.291C409.984 636.159 411.372 637.716 411.372 638.759C411.372 639.802 411.547 641.359 410.68 642.572C409.814 643.784 408.953 646.559 409.988 647.602C411.024 648.645 409.122 654.014 409.122 654.014C409.122 654.014 412.413 662.513 409.297 664.938C409.297 664.938 407.913 669.789 407.738 670.138C407.738 670.138 409.921 653.263 388.161 660.398C388.161 660.398 387.759 653.966 387.609 651.584C387.459 649.202 389.487 648.504 388.369 647.083C387.251 645.661 384.454 642.397 385.775 641.533C387.096 640.67 386.641 639.108 386.119 637.891C385.596 636.673 383.772 636.678 385.427 635.203C387.082 633.729 388.064 632.346 387.091 631.653C386.119 630.959 384.43 628.698 385.775 627.66C387.12 626.622 387.159 611.537 387.159 611.537C387.159 611.537 392.695 589.344 403.069 600.268Z" fill="#F27C2E"/>
<path opacity="0.1" d="M400.872 630.1C400.872 630.1 407.521 628.291 407.738 630.1C407.956 631.91 400.872 630.1 400.872 630.1Z" fill="black"/>
<path opacity="0.1" d="M393.401 635.082C393.401 635.082 402.517 632.797 403.654 634.573C404.791 636.348 393.401 635.082 393.401 635.082Z" fill="black"/>
<path opacity="0.1" d="M391.374 639.904C391.374 639.904 405.048 637.997 405.933 640.791C406.819 643.585 391.374 639.904 391.374 639.904Z" fill="black"/>
<path opacity="0.1" d="M393.401 645.87C393.909 645.996 406.567 646.884 406.819 649.295C407.071 651.705 393.401 645.87 393.401 645.87Z" fill="black"/>
<path d="M395.051 653.685H296.757C293.959 653.685 291.691 655.958 291.691 658.763V710.341C291.691 713.146 293.959 715.42 296.757 715.42H395.051C397.849 715.42 400.117 713.146 400.117 710.341V658.763C400.117 655.958 397.849 653.685 395.051 653.685Z" fill="#3F3D56"/>
<path d="M345.904 688.561C348.111 688.561 349.901 686.768 349.901 684.555C349.901 682.342 348.111 680.548 345.904 680.548C343.697 680.548 341.907 682.342 341.907 684.555C341.907 686.768 343.697 688.561 345.904 688.561Z" fill="#E7EFFD"/>
<path opacity="0.1" d="M309.846 615.844C309.846 615.844 320.239 623.809 328.276 617.741C328.276 617.741 314.689 618.978 309.846 615.844Z" fill="black"/>
<path opacity="0.1" d="M362.472 617.988C362.472 617.988 372.861 625.948 380.898 619.88C380.898 619.88 367.315 621.122 362.472 617.988Z" fill="black"/>
<path opacity="0.1" d="M368.709 540.522C368.717 545.193 367.409 549.772 364.935 553.73C364.727 546.779 363.096 539.823 359.322 534.017C355.867 528.681 345.362 519.373 338.143 521.968C337.388 522.245 336.708 522.697 336.16 523.287C335.612 523.877 335.21 524.588 334.988 525.363C334.272 528.089 336.367 529.244 337.712 531.393C339.993 535.116 340.884 539.529 340.228 543.849C340.137 544.431 340.015 545.007 339.865 545.576C338.728 549.855 336.125 554.749 338.81 558.256C340.683 560.681 344.709 561.545 345.256 564.562C345.306 564.847 345.322 565.137 345.304 565.425C345.178 567.468 343.441 569.267 342.681 571.271C341.791 573.633 342.294 575.981 343.218 578.353C344.419 581.447 346.335 584.576 346.799 587.846C347.264 591.115 346.262 594.151 345.081 597.222C343.964 600.132 342.662 603.019 342.227 606.05C341.389 611.813 343.499 618.478 339.88 623.028C339.512 623.578 338.944 623.963 338.297 624.1C335.98 624.342 336.362 620.166 334.509 618.764C334.707 621.189 334.896 623.722 334.025 625.992C333.154 628.262 330.86 630.192 328.46 629.809L327.633 624.362C326 625.974 324.034 627.207 321.875 627.976C322.725 622.183 324.772 616.632 327.884 611.677C321.792 614.617 318.241 620.981 315.071 626.967C313.097 630.707 311.05 634.791 311.742 638.967C312.023 640.67 312.754 642.29 312.913 644.002C313.073 645.715 312.454 647.718 310.862 648.368C309.473 648.936 307.852 648.257 306.85 647.122L306.676 646.913C306.579 646.787 306.488 646.656 306.4 646.525C306.227 646.262 306.074 645.986 305.941 645.7C305.508 644.675 305.184 643.607 304.973 642.513L304.867 642.028C303.255 634.941 301.804 627.631 302.984 620.462C303.42 617.823 304.213 615.204 304.117 612.526C304.044 611.016 303.737 609.527 303.207 608.112C301.794 604.144 299.075 600.501 297.526 596.504C297.509 596.477 297.496 596.448 297.487 596.417C296.675 594.302 296.273 591.658 297.778 589.96C298.552 589.082 299.713 588.641 300.681 588.02C303.691 586.056 305.036 582.325 305.592 578.765C305.843 577.16 305.969 575.538 305.97 573.914C310.049 572.459 315.492 570.363 316.092 570.693C316.939 571.149 325.426 570.359 325.77 570.325C328.354 568.831 330.609 566.633 331.712 563.417C331.814 563.131 331.901 562.835 331.983 562.525C328.109 560.429 324.858 557.342 322.562 553.577C320.265 549.813 319.005 545.505 318.91 541.093C318.814 536.681 319.887 532.323 322.019 528.462C324.15 524.601 327.264 521.376 331.044 519.114C334.824 516.852 339.134 515.635 343.536 515.587C347.938 515.539 352.273 516.661 356.102 518.839C359.93 521.017 363.114 524.173 365.33 527.986C367.545 531.799 368.713 536.133 368.714 540.546L368.709 540.522Z" fill="black"/>
<path d="M339.865 544.538C338.723 548.817 336.125 553.711 338.815 557.223C340.688 559.648 344.714 560.507 345.251 563.529C345.681 565.954 343.547 567.953 342.686 570.233C340.635 575.68 345.986 581.035 346.799 586.803C347.685 593.06 343.136 598.76 342.231 605.012C341.394 610.775 343.504 617.435 339.885 621.99C339.519 622.543 338.95 622.928 338.302 623.062C335.985 623.309 336.367 619.133 334.514 617.726C334.712 620.151 334.901 622.684 334.03 624.954C333.159 627.224 330.865 629.15 328.465 628.771L327.638 623.319C326.005 624.931 324.039 626.165 321.88 626.933C322.73 621.142 324.775 615.593 327.884 610.639C321.792 613.579 318.246 619.943 315.076 625.924C313.097 629.664 311.055 633.753 311.742 637.929C312.023 639.632 312.754 641.247 312.913 642.964C313.073 644.682 312.454 646.675 310.862 647.33C309.41 647.936 307.654 647.131 306.676 645.875C305.699 644.619 305.321 643.018 304.968 641.47C303.313 634.233 301.77 626.763 302.975 619.438C303.41 616.795 304.204 614.175 304.107 611.503C303.899 605.648 299.587 600.831 297.487 595.384C296.67 593.264 296.273 590.625 297.778 588.927C298.552 588.049 299.713 587.608 300.681 586.987C303.686 585.018 305.036 581.292 305.587 577.732C306.182 573.883 306.072 569.958 305.263 566.148C304.049 560.449 301.262 554.88 301.954 549.093C302.631 543.398 306.521 538.703 309.139 533.605C312.507 527.006 313.799 519.539 312.846 512.189C312.396 508.769 311.607 504.811 313.92 502.254C316.697 499.189 322.073 500.343 325.242 497.685C326.791 496.39 327.541 494.396 328.688 492.737C330.121 490.744 332.124 489.235 334.432 488.408C336.74 487.582 339.244 487.478 341.612 488.11C343.789 488.735 345.744 489.977 347.902 490.68C350.941 491.651 354.193 491.544 357.386 491.927C360.58 492.31 363.923 493.382 365.753 496.007C366.72 497.404 367.161 499.106 368.051 500.552C369.962 503.656 373.606 505.15 376.364 507.532C378.729 509.646 380.421 512.412 381.228 515.483C382.035 518.555 381.922 521.798 380.903 524.805C379.257 529.399 375.449 533.464 375.774 538.334C375.904 540.337 376.741 542.302 376.48 544.286C375.715 549.811 367.717 550.912 364.954 555.753C365.177 547.817 363.657 539.644 359.336 532.993C355.881 527.658 345.377 518.344 338.157 520.939C337.403 521.218 336.724 521.671 336.176 522.26C335.628 522.85 335.226 523.561 335.002 524.335C334.286 527.056 336.381 528.215 337.726 530.364C339.014 532.462 339.867 534.798 340.235 537.233C340.602 539.668 340.477 542.153 339.865 544.538Z" fill="#3F3D56"/>
<g opacity="0.2">
<path opacity="0.2" d="M305.941 572.032C306.001 569.54 305.769 567.049 305.249 564.611C304.218 559.76 302.06 555.011 301.862 550.141C301.581 555.564 304.112 560.812 305.249 566.148C305.661 568.084 305.893 570.054 305.941 572.032Z" fill="black"/>
<path opacity="0.2" d="M326.554 611.396C326.975 610.625 327.41 609.858 327.88 609.111C321.793 612.051 318.241 618.415 315.071 624.401C313.238 627.859 311.355 631.623 311.636 635.475C311.868 632.172 313.489 628.951 315.071 625.958C318.004 620.423 321.265 614.573 326.554 611.396Z" fill="black"/>
<path opacity="0.2" d="M312.884 642.766C312.701 644.075 312.052 645.317 310.862 645.807C309.41 646.408 307.654 645.608 306.681 644.352C305.709 643.095 305.321 641.5 304.968 639.947C303.788 634.776 302.665 629.479 302.549 624.207C302.433 629.994 303.662 635.824 304.968 641.509C305.321 643.057 305.704 644.662 306.681 645.914C307.659 647.165 309.396 647.97 310.862 647.369C312.454 646.714 313.078 644.72 312.918 643.003C312.884 642.921 312.884 642.843 312.884 642.766Z" fill="black"/>
<path opacity="0.2" d="M340.427 539.328C340.37 540.574 340.182 541.81 339.865 543.015C339.023 546.183 337.378 549.694 337.673 552.716C337.906 550.078 339.164 547.206 339.865 544.562C340.314 542.856 340.503 541.092 340.427 539.328Z" fill="black"/>
<path opacity="0.2" d="M313.131 516.181C313.172 514.331 313.071 512.481 312.831 510.646C312.652 509.298 312.425 507.862 312.347 506.46C312.236 508.327 312.575 510.34 312.831 512.208C313.004 513.526 313.104 514.852 313.131 516.181Z" fill="black"/>
<path opacity="0.2" d="M345.256 563.577C345.256 563.534 345.256 563.5 345.222 563.456C344.854 565.261 343.373 566.91 342.691 568.724C342.286 569.807 342.14 570.97 342.265 572.119C342.324 571.492 342.467 570.875 342.691 570.286C343.548 568.001 345.681 565.983 345.256 563.577Z" fill="black"/>
<path opacity="0.2" d="M304.107 609.979C303.894 604.125 299.587 599.308 297.483 593.86C297.147 593.003 296.919 592.107 296.805 591.193C296.689 592.637 296.921 594.088 297.483 595.422C299.554 600.797 303.744 605.526 304.083 611.25C304.107 610.828 304.121 610.401 304.107 609.979Z" fill="black"/>
<path opacity="0.2" d="M359.336 531.47C355.877 526.134 345.377 516.821 338.157 519.416C337.402 519.695 336.723 520.147 336.174 520.737C335.625 521.327 335.222 522.037 334.998 522.812C334.827 523.405 334.809 524.033 334.944 524.636C334.944 524.548 334.973 524.461 334.998 524.374C335.222 523.599 335.624 522.888 336.173 522.298C336.722 521.708 337.402 521.256 338.157 520.978C345.377 518.383 355.877 527.711 359.336 533.032C363.246 539.057 364.858 546.328 364.964 553.541C365.066 545.804 363.522 537.912 359.336 531.47Z" fill="black"/>
<path opacity="0.2" d="M376.466 542.748C375.706 548.259 367.756 549.37 364.964 554.181C364.964 554.71 364.964 555.244 364.964 555.772C367.722 550.922 375.725 549.83 376.485 544.305C376.553 543.763 376.553 543.213 376.485 542.671C376.481 542.697 376.474 542.723 376.466 542.748Z" fill="black"/>
<path opacity="0.2" d="M380.888 523.263C379.243 527.861 375.435 531.921 375.759 536.796C375.759 536.864 375.759 536.937 375.759 537.01C376.117 532.717 379.374 528.992 380.864 524.825C381.535 522.921 381.823 520.903 381.711 518.887C381.658 520.379 381.38 521.854 380.888 523.263Z" fill="black"/>
<path opacity="0.2" d="M339.885 620.476C339.519 621.03 338.951 621.417 338.302 621.553C335.985 621.801 336.367 617.624 334.514 616.217C334.562 616.77 334.606 617.328 334.635 617.886C336.357 619.38 336.038 623.353 338.302 623.11C338.624 623.045 338.929 622.916 339.2 622.732C339.472 622.548 339.704 622.313 339.885 622.038C341.951 619.438 342.149 616.154 342.096 612.744C342.043 615.587 341.631 618.298 339.885 620.476Z" fill="black"/>
<path opacity="0.2" d="M334.025 623.445C333.144 625.72 330.86 627.646 328.456 627.263C328.181 625.448 327.907 623.631 327.633 621.81C326.071 623.347 324.207 624.541 322.16 625.317C322.054 625.87 321.952 626.428 321.87 626.986C324.031 626.218 325.999 624.985 327.633 623.372C327.907 625.193 328.181 627.01 328.456 628.825C330.875 629.203 333.144 627.282 334.025 625.007C334.566 623.422 334.781 621.744 334.659 620.074C334.633 621.225 334.419 622.364 334.025 623.445Z" fill="black"/>
<path opacity="0.2" d="M342.231 603.499C342.045 604.964 341.975 606.442 342.023 607.918C342.031 606.962 342.101 606.008 342.231 605.061C343.098 599.099 347.264 593.642 346.886 587.729C346.552 593.075 343.02 598.066 342.231 603.499Z" fill="black"/>
</g>
<path d="M486.112 686.209C486.112 686.209 482.826 701.552 497.449 703.371L498.354 701.668C498.354 701.668 487.031 690.996 486.112 686.209Z" fill="#F27C2E"/>
<path d="M503.018 701.566L499.631 702.289L499.292 702.362C499.292 702.362 490.22 694.979 490.336 678.496C491.55 680.925 493.001 683.227 494.667 685.37C498.252 690.138 502.341 696.507 503.018 701.566Z" fill="#F27C2E"/>
<path d="M504.17 703.148C503.902 703.321 503.599 703.433 503.282 703.474C502.966 703.515 502.644 703.485 502.341 703.385C493.631 701.338 496.559 672.826 496.559 672.826C497.042 673.054 497.57 676.706 499.578 681.363C503.101 689.604 506.972 701.081 504.17 703.148Z" fill="#F27C2E"/>
<path d="M523.535 686.209C523.535 686.209 524.101 701.552 509.478 703.371L508.573 701.668C508.573 701.668 522.63 690.996 523.535 686.209Z" fill="#F27C2E"/>
<path d="M519.344 678.496C519.451 694.989 507.664 702.362 507.664 702.362L507.325 702.289L503.938 701.566C504.61 696.507 508.709 690.138 512.299 685.37C514.33 682.773 516.7 680.461 519.344 678.496Z" fill="#F27C2E"/>
<path d="M507.272 701.654C506.748 702.293 506.086 702.804 505.336 703.148C505.107 703.251 504.869 703.33 504.625 703.385C502.476 703.87 501.721 702.337 501.847 699.699C502.051 694.998 504.997 686.849 507.654 680.781C509.56 676.386 512.672 673.058 513.136 672.84C513.107 672.816 512.976 695.027 507.272 701.654Z" fill="#F27C2E"/>
<path d="M504.833 662.814C504.833 662.814 495.083 697.477 503.473 702.706C511.864 707.935 506.986 665.884 504.833 662.814Z" fill="#F27C2E"/>
<path opacity="0.1" d="M486.112 686.209C486.112 686.209 482.826 701.552 497.449 703.371L498.354 701.668C498.354 701.668 487.031 690.996 486.112 686.209Z" fill="black"/>
<path opacity="0.1" d="M503.018 701.566L499.631 702.289L499.292 702.362C499.292 702.362 490.22 694.979 490.336 678.496C491.55 680.925 493.001 683.227 494.667 685.37C498.252 690.138 502.341 696.507 503.018 701.566Z" fill="black"/>
<path opacity="0.1" d="M504.17 703.148C503.902 703.321 503.599 703.433 503.282 703.474C502.966 703.515 502.644 703.485 502.341 703.385C493.631 701.338 496.559 672.826 496.559 672.826C497.042 673.054 497.57 676.706 499.578 681.363C503.101 689.604 506.972 701.081 504.17 703.148Z" fill="black"/>
<path opacity="0.1" d="M523.535 686.209C523.535 686.209 524.101 701.552 509.478 703.371L508.573 701.668C508.573 701.668 522.63 690.996 523.535 686.209Z" fill="black"/>
<path opacity="0.1" d="M519.344 678.496C519.451 694.989 507.664 702.362 507.664 702.362L507.325 702.289L503.938 701.566C504.61 696.507 508.709 690.138 512.299 685.37C514.33 682.773 516.7 680.461 519.344 678.496Z" fill="black"/>
<path opacity="0.1" d="M507.272 701.654C506.748 702.293 506.086 702.804 505.336 703.148C505.107 703.251 504.869 703.33 504.625 703.385C502.476 703.87 501.721 702.337 501.847 699.699C502.051 694.998 504.997 686.849 507.654 680.781C509.56 676.386 512.672 673.058 513.136 672.84C513.107 672.816 512.976 695.027 507.272 701.654Z" fill="black"/>
<path opacity="0.1" d="M504.833 662.814C504.833 662.814 495.083 697.477 503.473 702.706C511.864 707.935 506.986 665.884 504.833 662.814Z" fill="black"/>
<path d="M486.112 686.209C486.112 686.209 484.176 701.552 498.809 703.371L499.713 701.668C499.713 701.668 487.031 690.996 486.112 686.209Z" fill="#F27C2E"/>
<path d="M504.378 701.566L500.991 702.289L500.647 702.362C500.647 702.362 490.215 694.979 490.331 678.496C490.331 678.496 493.002 681.368 496.021 685.37C499.612 690.138 503.701 696.507 504.378 701.566Z" fill="#F27C2E"/>
<path opacity="0.1" d="M504.378 701.566L500.991 702.289C497.763 699.451 496.486 692.044 496.021 685.37C499.612 690.138 503.701 696.507 504.378 701.566Z" fill="black"/>
<path d="M505.53 703.148C505.262 703.321 504.958 703.433 504.642 703.474C504.325 703.515 504.004 703.485 503.701 703.385C494.967 701.338 496.559 672.826 496.559 672.826C497.042 673.054 498.93 676.706 500.913 681.363C504.46 689.604 508.331 701.081 505.53 703.148Z" fill="#F27C2E"/>
<path d="M523.534 686.209C523.534 686.209 525.47 701.552 510.838 703.371L509.933 701.668C509.933 701.668 522.63 690.996 523.534 686.209Z" fill="#F27C2E"/>
<path d="M519.344 678.496C519.451 694.989 509.023 702.362 509.023 702.362L508.684 702.289L505.297 701.566C505.975 696.507 510.068 690.138 513.659 685.37C516.668 681.358 519.344 678.496 519.344 678.496Z" fill="#F27C2E"/>
<path opacity="0.1" d="M513.644 685.37C513.209 691.598 512.072 698.467 509.314 701.653C509.121 701.882 508.911 702.094 508.684 702.289L505.297 701.566C505.951 696.507 510.054 690.138 513.644 685.37Z" fill="black"/>
<path d="M508.631 701.654C508.108 702.293 507.446 702.804 506.696 703.148C506.466 703.251 506.226 703.33 505.98 703.385C503.831 703.87 503.076 702.337 503.202 699.699C503.41 694.998 506.352 686.849 509.009 680.781C510.915 676.386 512.667 673.058 513.131 672.84C513.107 672.816 514.336 695.027 508.631 701.654Z" fill="#F27C2E"/>
<path opacity="0.1" d="M505.53 703.148C505.036 703.145 504.555 702.991 504.151 702.706C500.042 700.14 499.96 690.511 500.938 681.363C504.46 689.604 508.331 701.081 505.53 703.148Z" fill="black"/>
<path opacity="0.1" d="M508.631 701.654C508.147 702.677 507.523 703.22 506.696 703.148C506.277 703.092 505.876 702.941 505.525 702.706C504.458 701.97 503.646 700.919 503.202 699.699C503.41 694.998 506.352 686.849 509.009 680.781C509.928 689.216 510.242 698.185 508.631 701.654Z" fill="black"/>
<path d="M504.833 662.814C504.833 662.814 496.442 697.477 504.833 702.706C513.223 707.935 506.986 665.884 504.833 662.814Z" fill="#F27C2E"/>
<path d="M520.931 700.999H486.015V706.795H491.342L491.473 707.479L493.607 718.728H513.905L516.039 707.479L516.17 706.795H520.931V700.999Z" fill="#D4DFEC"/>
<path opacity="0.1" d="M520.917 700.999H486V706.795H491.328L491.458 707.479L493.592 718.728H513.891L516.025 707.479L516.155 706.795H520.917V700.999Z" fill="black"/>
<path d="M517.985 704.409L517.399 707.479L515.265 718.728H494.967L492.833 707.479L492.247 704.409H517.985Z" fill="#D4DFEC"/>
<path opacity="0.1" d="M517.985 704.409L517.399 707.479H492.833L492.247 704.409H517.985Z" fill="black"/>
<path d="M522.291 700.999H487.375V706.795H522.291V700.999Z" fill="#D4DFEC"/>
<path d="M224.205 663.895C223.708 664.579 223.31 665.331 223.024 666.127C222.951 666.321 222.879 666.544 222.806 666.757C222.676 666.693 222.537 666.646 222.395 666.617C221.792 666.463 221.167 666.409 220.547 666.457C220.547 666.214 220.571 665.972 220.58 665.695C220.658 662.95 220.334 659.132 217.726 660.747C215.224 662.309 217.009 664.9 218.626 666.568C218.766 666.714 218.901 666.845 219.037 666.976C217.585 668.038 217.285 670.478 217.038 673.034C216.792 675.591 214.619 678.37 213.196 679.971C213.056 680.131 212.921 680.276 212.79 680.412C212.211 679.945 211.54 679.608 210.821 679.422C210.101 679.236 209.351 679.207 208.619 679.335L208.425 678.627C207.264 674.421 204.85 667.136 201.772 665.53L202.179 665.016C203.485 663.299 204.956 660.752 202.783 660.102C200.611 659.452 200.412 662.309 200.533 664.468C200.533 664.735 200.572 664.992 200.596 665.229C200.161 665.25 199.735 665.359 199.343 665.55C198.951 665.741 198.602 666.01 198.317 666.34C198.216 666.214 198.104 666.083 197.983 665.942C196.222 663.852 192.985 660.548 192.008 663.032C191.098 665.36 193.943 668.368 195.946 670.143L196.072 670.25C194.727 675.721 200.591 680.174 203.756 682.124C203.896 682.217 204.032 682.299 204.162 682.377C199.808 687.523 197.112 697.176 197.112 697.176L209.335 699.403C209.335 699.403 217.43 692.403 216.395 685.821H216.477C224.563 684.196 226.401 675.552 225.143 670.42L225.284 670.361C226.756 669.756 228.046 668.779 229.029 667.524C231.274 664.38 226.527 660.815 224.205 663.895Z" fill="#F27C2E"/>
<path opacity="0.1" d="M224.205 663.895C223.708 664.579 223.31 665.331 223.024 666.127C222.951 666.321 222.879 666.544 222.806 666.757C222.676 666.693 222.537 666.646 222.395 666.617C221.792 666.463 221.167 666.409 220.547 666.457C220.547 666.214 220.571 665.972 220.58 665.695C220.658 662.95 220.334 659.132 217.726 660.747C215.224 662.309 217.009 664.9 218.626 666.568C218.766 666.714 218.901 666.845 219.037 666.976C217.585 668.038 217.285 670.478 217.038 673.034C216.792 675.591 214.619 678.37 213.196 679.971C213.056 680.131 212.921 680.276 212.79 680.412C212.211 679.945 211.54 679.608 210.821 679.422C210.101 679.236 209.351 679.207 208.619 679.335L208.425 678.627C207.264 674.421 204.85 667.136 201.772 665.53L202.179 665.016C203.485 663.299 204.956 660.752 202.783 660.102C200.611 659.452 200.412 662.309 200.533 664.468C200.533 664.735 200.572 664.992 200.596 665.229C200.161 665.25 199.735 665.359 199.343 665.55C198.951 665.741 198.602 666.01 198.317 666.34C198.216 666.214 198.104 666.083 197.983 665.942C196.222 663.852 192.985 660.548 192.008 663.032C191.098 665.36 193.943 668.368 195.946 670.143L196.072 670.25C194.727 675.721 200.591 680.174 203.756 682.124C203.896 682.217 204.032 682.299 204.162 682.377C199.808 687.523 197.112 697.176 197.112 697.176L209.335 699.403C209.335 699.403 217.43 692.403 216.395 685.821H216.477C224.563 684.196 226.401 675.552 225.143 670.42L225.284 670.361C226.756 669.756 228.046 668.779 229.029 667.524C231.274 664.38 226.527 660.815 224.205 663.895Z" fill="black"/>
<path d="M199.914 667.436L198.487 671.627C198.487 671.627 197.693 671.065 196.691 670.172C194.688 668.416 191.853 665.389 192.753 663.061C193.72 660.558 196.967 663.861 198.733 665.971C199.44 666.806 199.914 667.436 199.914 667.436Z" fill="#F27C2E"/>
<path d="M202.924 665.05C202.489 665.62 202.026 666.167 201.535 666.689C201.412 665.96 201.326 665.225 201.279 664.487C201.162 662.343 201.385 659.496 203.529 660.122C205.672 660.747 204.23 663.333 202.924 665.05Z" fill="#F27C2E"/>
<path d="M221.33 665.71C221.282 667.087 221.151 668.188 221.151 668.188C220.523 667.696 219.929 667.163 219.371 666.592C217.754 664.914 215.984 662.324 218.475 660.772C221.084 659.147 221.403 662.964 221.33 665.71Z" fill="#F27C2E"/>
<path d="M229.759 667.514C228.777 668.769 227.486 669.747 226.014 670.352C225.605 670.531 225.185 670.684 224.756 670.808L223.077 668.441C223.255 667.659 223.488 666.89 223.774 666.141C224.058 665.344 224.456 664.593 224.954 663.91C227.277 660.815 232.019 664.38 229.759 667.514Z" fill="#F27C2E"/>
<path opacity="0.1" d="M198.733 665.962C199.44 666.796 199.914 667.417 199.914 667.417L198.487 671.608C198.487 671.608 197.693 671.045 196.691 670.153C196.914 668.811 197.466 667.546 198.298 666.471C198.443 666.296 198.588 666.127 198.733 665.962Z" fill="black"/>
<path opacity="0.1" d="M202.924 665.05C202.489 665.62 202.026 666.167 201.535 666.689C201.412 665.96 201.326 665.225 201.279 664.487C201.872 664.497 202.448 664.694 202.924 665.05Z" fill="black"/>
<path d="M209.94 681.669L206.393 683.235C205.745 682.911 205.113 682.553 204.501 682.163C200.771 679.864 193.27 674.077 198.298 667.252C203.325 660.427 207.521 672.666 209.171 678.651C209.674 680.441 209.94 681.669 209.94 681.669Z" fill="#F27C2E"/>
<path opacity="0.1" d="M219.371 666.592C219.887 666.058 220.588 665.742 221.33 665.71C221.282 667.087 221.151 668.188 221.151 668.188C220.523 667.696 219.929 667.163 219.371 666.592Z" fill="black"/>
<path opacity="0.1" d="M226.014 670.352C225.605 670.531 225.185 670.684 224.756 670.808L223.077 668.441C223.255 667.659 223.488 666.89 223.774 666.141C224.858 666.777 225.656 668.358 226.014 670.352Z" fill="black"/>
<path d="M217.203 685.811C217.009 685.85 216.806 685.889 216.607 685.918C204.709 687.732 212.683 681.295 212.683 681.295C212.683 681.295 213.22 680.81 213.946 679.995C215.398 678.404 217.541 675.629 217.788 673.058C218.161 669.178 218.591 665.564 223.145 666.631C227.611 667.679 228.462 683.551 217.203 685.811Z" fill="#F27C2E"/>
<path d="M216.985 715.507H194.253V721.498H216.985V715.507Z" fill="#D4DFEC"/>
<path d="M220.338 696.031H190.638V716.943H220.338V696.031Z" fill="#D4DFEC"/>
<path opacity="0.1" d="M216.985 715.507H194.253V721.498H216.985V715.507Z" fill="black"/>
<path opacity="0.1" d="M220.338 696.031H190.638V716.943H220.338V696.031Z" fill="black"/>
<path d="M218.475 715.507H195.743V721.498H218.475V715.507Z" fill="#D4DFEC"/>
<path opacity="0.1" d="M209.171 678.651C209.654 680.441 209.94 681.668 209.94 681.668L206.393 683.235C205.745 682.91 205.113 682.553 204.501 682.163C205.89 680.388 207.458 679.064 209.171 678.651Z" fill="black"/>
<path opacity="0.1" d="M217.203 685.811C217.009 685.85 216.806 685.889 216.607 685.918C204.709 687.732 212.683 681.295 212.683 681.295C212.683 681.295 213.22 680.81 213.946 679.995C216.167 681.775 217.077 683.783 217.203 685.811Z" fill="black"/>
<path d="M197.862 697.215C197.862 697.215 204.525 673.311 213.864 680.674C223.203 688.037 210.066 699.403 210.066 699.403L197.862 697.215Z" fill="#F27C2E"/>
<path opacity="0.1" d="M201.225 671.749C201.637 671.749 201.97 671.414 201.97 671.002C201.97 670.589 201.637 670.255 201.225 670.255C200.814 670.255 200.48 670.589 200.48 671.002C200.48 671.414 200.814 671.749 201.225 671.749Z" fill="black"/>
<path opacity="0.1" d="M201.162 675.241C201.574 675.241 201.908 674.907 201.908 674.494C201.908 674.082 201.574 673.747 201.162 673.747C200.751 673.747 200.417 674.082 200.417 674.494C200.417 674.907 200.751 675.241 201.162 675.241Z" fill="black"/>
<path opacity="0.1" d="M222.83 672.433C223.242 672.433 223.575 672.098 223.575 671.686C223.575 671.273 223.242 670.939 222.83 670.939C222.419 670.939 222.085 671.273 222.085 671.686C222.085 672.098 222.419 672.433 222.83 672.433Z" fill="black"/>
<path opacity="0.1" d="M205.396 690.346C205.808 690.346 206.141 690.012 206.141 689.599C206.141 689.187 205.808 688.852 205.396 688.852C204.985 688.852 204.651 689.187 204.651 689.599C204.651 690.012 204.985 690.346 205.396 690.346Z" fill="black"/>
<path opacity="0.1" d="M221.277 678.239C221.689 678.239 222.022 677.905 222.022 677.492C222.022 677.079 221.689 676.745 221.277 676.745C220.865 676.745 220.532 677.079 220.532 677.492C220.532 677.905 220.865 678.239 221.277 678.239Z" fill="black"/>
<path opacity="0.1" d="M213.554 685.981C213.966 685.981 214.3 685.646 214.3 685.234C214.3 684.821 213.966 684.487 213.554 684.487C213.143 684.487 212.809 684.821 212.809 685.234C212.809 685.646 213.143 685.981 213.554 685.981Z" fill="black"/>
<path opacity="0.1" d="M203.78 673.243C204.192 673.243 204.525 672.908 204.525 672.496C204.525 672.083 204.192 671.749 203.78 671.749C203.369 671.749 203.035 672.083 203.035 672.496C203.035 672.908 203.369 673.243 203.78 673.243Z" fill="black"/>
<path opacity="0.1" d="M220.779 674.679C221.19 674.679 221.524 674.344 221.524 673.932C221.524 673.519 221.19 673.185 220.779 673.185C220.367 673.185 220.033 673.519 220.033 673.932C220.033 674.344 220.367 674.679 220.779 674.679Z" fill="black"/>
<path opacity="0.1" d="M218.224 680.485C218.635 680.485 218.969 680.15 218.969 679.738C218.969 679.325 218.635 678.991 218.224 678.991C217.812 678.991 217.479 679.325 217.479 679.738C217.479 680.15 217.812 680.485 218.224 680.485Z" fill="black"/>
<path opacity="0.1" d="M210.38 689.789C210.792 689.789 211.125 689.454 211.125 689.042C211.125 688.629 210.792 688.295 210.38 688.295C209.969 688.295 209.635 688.629 209.635 689.042C209.635 689.454 209.969 689.789 210.38 689.789Z" fill="black"/>
<path opacity="0.1" d="M208.759 686.102C209.171 686.102 209.505 685.768 209.505 685.355C209.505 684.942 209.171 684.608 208.759 684.608C208.348 684.608 208.014 684.942 208.014 685.355C208.014 685.768 208.348 686.102 208.759 686.102Z" fill="black"/>
<path opacity="0.1" d="M204.898 677.802C205.309 677.802 205.643 677.468 205.643 677.055C205.643 676.643 205.309 676.308 204.898 676.308C204.486 676.308 204.153 676.643 204.153 677.055C204.153 677.468 204.486 677.802 204.898 677.802Z" fill="black"/>
<path opacity="0.1" d="M218.475 715.507H195.743V717.695H218.475V715.507Z" fill="black"/>
<path d="M221.833 696.031H192.133V716.943H221.833V696.031Z" fill="#D4DFEC"/>
<path opacity="0.1" d="M211.377 693.16C211.789 693.16 212.122 692.825 212.122 692.413C212.122 692 211.789 691.666 211.377 691.666C210.965 691.666 210.632 692 210.632 692.413C210.632 692.825 210.965 693.16 211.377 693.16Z" fill="black"/>
<path opacity="0.1" d="M206.891 694.096C207.303 694.096 207.637 693.762 207.637 693.349C207.637 692.936 207.303 692.602 206.891 692.602C206.48 692.602 206.146 692.936 206.146 693.349C206.146 693.762 206.48 694.096 206.891 694.096Z" fill="black"/>
</g>
<defs>
<linearGradient id="paint0_linear" x1="0" y1="0" x2="360" y2="1024" gradientUnits="userSpaceOnUse">
<stop offset="0.15625" stop-color="#E66D2F"/>
<stop offset="1" stop-color="#E12C4E"/>
</linearGradient>
<linearGradient id="paint1_linear" x1="354.497" y1="713.955" x2="354.497" y2="414" gradientUnits="userSpaceOnUse">
<stop offset="0.2" stop-color="#808080" stop-opacity="0.4"/>
<stop offset="0.46" stop-color="#808080" stop-opacity="0.5"/>
<stop offset="1" stop-opacity="0.6"/>
</linearGradient>
<linearGradient id="paint2_linear" x1="353.215" y1="757.335" x2="353.215" y2="485.485" gradientUnits="userSpaceOnUse">
<stop stop-color="#808080" stop-opacity="0.25"/>
<stop offset="0.54" stop-color="#808080" stop-opacity="0.12"/>
<stop offset="1" stop-color="#808080" stop-opacity="0.1"/>
</linearGradient>
<clipPath id="clip0">
<rect width="537" height="363" fill="white" transform="translate(86 414)"/>
</clipPath>
</defs>
</svg>
