<svg width="420" height="540" viewBox="0 0 420 540" fill="none" xmlns="http://www.w3.org/2000/svg">
<circle cx="210" cy="210" r="210" fill="url(#paint0_linear)"/>
<path d="M107.32 494.096C111.629 494.096 115.085 495.184 117.688 497.36C120.291 499.536 121.912 502.437 122.552 506.064H114.104C113.763 504.357 112.995 502.992 111.8 501.968C110.605 500.944 109.048 500.432 107.128 500.432C105.592 500.432 104.397 500.795 103.544 501.52C102.691 502.245 102.264 503.227 102.264 504.464C102.264 505.445 102.605 506.235 103.288 506.832C103.971 507.429 104.824 507.899 105.848 508.24C106.872 508.581 108.344 508.987 110.264 509.456C112.952 510.053 115.128 510.693 116.792 511.376C118.499 512.016 119.949 513.061 121.144 514.512C122.381 515.92 123 517.84 123 520.272C123 523.301 121.805 525.755 119.416 527.632C117.069 529.509 113.891 530.448 109.88 530.448C105.272 530.448 101.581 529.424 98.808 527.376C96.0347 525.285 94.3493 522.32 93.752 518.48H102.392C102.605 520.229 103.373 521.616 104.696 522.64C106.019 523.621 107.747 524.112 109.88 524.112C111.416 524.112 112.589 523.749 113.4 523.024C114.211 522.256 114.616 521.275 114.616 520.08C114.616 519.056 114.253 518.224 113.528 517.584C112.845 516.944 111.971 516.453 110.904 516.112C109.88 515.771 108.408 515.365 106.488 514.896C103.843 514.299 101.688 513.701 100.024 513.104C98.4027 512.464 96.9947 511.461 95.8 510.096C94.648 508.731 94.072 506.853 94.072 504.464C94.072 501.392 95.2453 498.896 97.592 496.976C99.9387 495.056 103.181 494.096 107.32 494.096ZM163.641 494.544V530H154.617V522.832C153.678 525.221 152.121 527.099 149.945 528.464C147.812 529.787 145.337 530.448 142.521 530.448C138.425 530.448 135.161 529.104 132.729 526.416C130.297 523.728 129.081 519.973 129.081 515.152V494.544H138.041V514.128C138.041 516.944 138.766 519.141 140.217 520.72C141.668 522.256 143.63 523.024 146.105 523.024C148.708 523.024 150.777 522.192 152.313 520.528C153.849 518.864 154.617 516.475 154.617 513.36V494.544H163.641ZM192.966 494.032C197.062 494.032 200.326 495.376 202.758 498.064C205.19 500.752 206.406 504.528 206.406 509.392V530H197.446V510.416C197.446 507.6 196.721 505.424 195.27 503.888C193.819 502.309 191.835 501.52 189.318 501.52C186.758 501.52 184.71 502.352 183.174 504.016C181.638 505.68 180.87 508.069 180.87 511.184V530H171.846V494.544H180.87V501.648C181.809 499.259 183.345 497.403 185.478 496.08C187.654 494.715 190.15 494.032 192.966 494.032ZM223.37 501.328C224.693 499.067 226.442 497.296 228.618 496.016C230.794 494.693 233.226 494.032 235.914 494.032V503.696H233.29C226.677 503.696 223.37 506.768 223.37 512.912V530H214.346V494.544H223.37V501.328ZM239.885 484.368C239.885 482.917 240.397 481.744 241.421 480.848C242.445 479.909 243.789 479.44 245.453 479.44C247.117 479.44 248.461 479.909 249.485 480.848C250.509 481.744 251.021 482.917 251.021 484.368C251.021 485.776 250.509 486.949 249.485 487.888C248.461 488.784 247.117 489.232 245.453 489.232C243.789 489.232 242.445 488.784 241.421 487.888C240.397 486.949 239.885 485.776 239.885 484.368ZM249.933 494.544V530H240.909V494.544H249.933ZM270.32 494.096C274.629 494.096 278.085 495.184 280.688 497.36C283.291 499.536 284.912 502.437 285.552 506.064H277.104C276.763 504.357 275.995 502.992 274.8 501.968C273.605 500.944 272.048 500.432 270.128 500.432C268.592 500.432 267.397 500.795 266.544 501.52C265.691 502.245 265.264 503.227 265.264 504.464C265.264 505.445 265.605 506.235 266.288 506.832C266.971 507.429 267.824 507.899 268.848 508.24C269.872 508.581 271.344 508.987 273.264 509.456C275.952 510.053 278.128 510.693 279.792 511.376C281.499 512.016 282.949 513.061 284.144 514.512C285.381 515.92 286 517.84 286 520.272C286 523.301 284.805 525.755 282.416 527.632C280.069 529.509 276.891 530.448 272.88 530.448C268.272 530.448 264.581 529.424 261.808 527.376C259.035 525.285 257.349 522.32 256.752 518.48H265.392C265.605 520.229 266.373 521.616 267.696 522.64C269.019 523.621 270.747 524.112 272.88 524.112C274.416 524.112 275.589 523.749 276.4 523.024C277.211 522.256 277.616 521.275 277.616 520.08C277.616 519.056 277.253 518.224 276.528 517.584C275.845 516.944 274.971 516.453 273.904 516.112C272.88 515.771 271.408 515.365 269.488 514.896C266.843 514.299 264.688 513.701 263.024 513.104C261.403 512.464 259.995 511.461 258.8 510.096C257.648 508.731 257.072 506.853 257.072 504.464C257.072 501.392 258.245 498.896 260.592 496.976C262.939 495.056 266.181 494.096 270.32 494.096ZM326.065 510.928C326.065 511.824 325.958 512.848 325.745 514H299.761C299.889 517.157 300.742 519.483 302.321 520.976C303.9 522.469 305.862 523.216 308.209 523.216C310.3 523.216 312.028 522.704 313.393 521.68C314.801 520.656 315.697 519.269 316.081 517.52H325.617C325.148 519.995 324.145 522.213 322.609 524.176C321.073 526.139 319.089 527.675 316.657 528.784C314.268 529.893 311.601 530.448 308.657 530.448C305.201 530.448 302.129 529.723 299.441 528.272C296.753 526.779 294.662 524.667 293.169 521.936C291.676 519.205 290.929 515.984 290.929 512.272C290.929 508.56 291.676 505.339 293.169 502.608C294.662 499.835 296.753 497.723 299.441 496.272C302.129 494.821 305.201 494.096 308.657 494.096C312.156 494.096 315.206 494.821 317.809 496.272C320.454 497.723 322.481 499.728 323.889 502.288C325.34 504.805 326.065 507.685 326.065 510.928ZM316.977 510.032C317.105 507.131 316.337 504.933 314.673 503.44C313.052 501.947 311.046 501.2 308.657 501.2C306.225 501.2 304.177 501.947 302.513 503.44C300.849 504.933 299.932 507.131 299.761 510.032H316.977Z" fill="black"/>
<defs>
<linearGradient id="paint0_linear" x1="210" y1="0" x2="210" y2="420" gradientUnits="userSpaceOnUse">
<stop stop-color="#E6712C"/>
<stop offset="1" stop-color="#E1294F"/>
</linearGradient>
</defs>
</svg>
