<svg width="476" height="580" viewBox="0 0 476 580" fill="none" xmlns="http://www.w3.org/2000/svg">
<circle cx="238" cy="210" r="210" fill="url(#paint0_linear)"/>
<path d="M35.968 562.152C30.1653 562.152 24.96 561.128 20.352 559.08C15.744 556.947 12.0747 554.088 9.344 550.504C6.69867 546.92 5.248 542.952 4.992 538.6H23.04C23.3813 541.331 24.704 543.592 27.008 545.384C29.3973 547.176 32.3413 548.072 35.84 548.072C39.2533 548.072 41.8987 547.389 43.776 546.024C45.7387 544.659 46.72 542.909 46.72 540.776C46.72 538.472 45.5253 536.765 43.136 535.656C40.832 534.461 37.12 533.181 32 531.816C26.7093 530.536 22.3573 529.213 18.944 527.848C15.616 526.483 12.7147 524.392 10.24 521.576C7.85067 518.76 6.656 514.963 6.656 510.184C6.656 506.259 7.76533 502.675 9.984 499.432C12.288 496.189 15.5307 493.629 19.712 491.752C23.9787 489.875 28.9707 488.936 34.688 488.936C43.136 488.936 49.8773 491.069 54.912 495.336C59.9467 499.517 62.72 505.192 63.232 512.36H46.08C45.824 509.544 44.6293 507.325 42.496 505.704C40.448 503.997 37.6747 503.144 34.176 503.144C30.9333 503.144 28.416 503.741 26.624 504.936C24.9173 506.131 24.064 507.795 24.064 509.928C24.064 512.317 25.2587 514.152 27.648 515.432C30.0373 516.627 33.7493 517.864 38.784 519.144C43.904 520.424 48.128 521.747 51.456 523.112C54.784 524.477 57.6427 526.611 60.032 529.512C62.5067 532.328 63.7867 536.083 63.872 540.776C63.872 544.872 62.72 548.541 60.416 551.784C58.1973 555.027 54.9547 557.587 50.688 559.464C46.5067 561.256 41.6 562.152 35.968 562.152ZM145.526 490.088V561H127.478V552.04C125.174 555.112 122.145 557.544 118.39 559.336C114.721 561.043 110.71 561.896 106.358 561.896C100.811 561.896 95.9047 560.744 91.638 558.44C87.3713 556.051 84.0007 552.595 81.526 548.072C79.1367 543.464 77.942 538.003 77.942 531.688V490.088H95.862V529.128C95.862 534.76 97.27 539.112 100.086 542.184C102.902 545.171 106.742 546.664 111.606 546.664C116.555 546.664 120.438 545.171 123.254 542.184C126.07 539.112 127.478 534.76 127.478 529.128V490.088H145.526ZM202.503 489.064C210.951 489.064 217.778 491.752 222.983 497.128C228.188 502.419 230.791 509.843 230.791 519.4V561H212.871V521.832C212.871 516.2 211.463 511.891 208.647 508.904C205.831 505.832 201.991 504.296 197.127 504.296C192.178 504.296 188.252 505.832 185.351 508.904C182.535 511.891 181.127 516.2 181.127 521.832V561H163.207V490.088H181.127V498.92C183.516 495.848 186.546 493.459 190.215 491.752C193.97 489.96 198.066 489.064 202.503 489.064ZM265.752 501.096C268.056 497.341 271.043 494.397 274.712 492.264C278.467 490.131 282.733 489.064 287.512 489.064V507.88H282.776C277.144 507.88 272.877 509.203 269.976 511.848C267.16 514.493 265.752 519.101 265.752 525.672V561H247.832V490.088H265.752V501.096ZM308.67 481.64C305.513 481.64 302.867 480.659 300.734 478.696C298.686 476.648 297.662 474.131 297.662 471.144C297.662 468.157 298.686 465.683 300.734 463.72C302.867 461.672 305.513 460.648 308.67 460.648C311.827 460.648 314.43 461.672 316.478 463.72C318.611 465.683 319.678 468.157 319.678 471.144C319.678 474.131 318.611 476.648 316.478 478.696C314.43 480.659 311.827 481.64 308.67 481.64ZM317.502 490.088V561H299.582V490.088H317.502ZM362.343 562.152C356.54 562.152 351.335 561.128 346.727 559.08C342.119 556.947 338.45 554.088 335.719 550.504C333.074 546.92 331.623 542.952 331.367 538.6H349.415C349.756 541.331 351.079 543.592 353.383 545.384C355.772 547.176 358.716 548.072 362.215 548.072C365.628 548.072 368.274 547.389 370.151 546.024C372.114 544.659 373.095 542.909 373.095 540.776C373.095 538.472 371.9 536.765 369.511 535.656C367.207 534.461 363.495 533.181 358.375 531.816C353.084 530.536 348.732 529.213 345.319 527.848C341.991 526.483 339.09 524.392 336.615 521.576C334.226 518.76 333.031 514.963 333.031 510.184C333.031 506.259 334.14 502.675 336.359 499.432C338.663 496.189 341.906 493.629 346.087 491.752C350.354 489.875 355.346 488.936 361.063 488.936C369.511 488.936 376.252 491.069 381.287 495.336C386.322 499.517 389.095 505.192 389.607 512.36H372.455C372.199 509.544 371.004 507.325 368.871 505.704C366.823 503.997 364.05 503.144 360.551 503.144C357.308 503.144 354.791 503.741 352.999 504.936C351.292 506.131 350.439 507.795 350.439 509.928C350.439 512.317 351.634 514.152 354.023 515.432C356.412 516.627 360.124 517.864 365.159 519.144C370.279 520.424 374.503 521.747 377.831 523.112C381.159 524.477 384.018 526.611 386.407 529.512C388.882 532.328 390.162 536.083 390.247 540.776C390.247 544.872 389.095 548.541 386.791 551.784C384.572 555.027 381.33 557.587 377.063 559.464C372.882 561.256 367.975 562.152 362.343 562.152ZM470.877 524.008C470.877 526.568 470.706 528.872 470.365 530.92H418.525C418.952 536.04 420.744 540.051 423.901 542.952C427.058 545.853 430.941 547.304 435.549 547.304C442.205 547.304 446.941 544.445 449.757 538.728H469.085C467.037 545.555 463.112 551.187 457.309 555.624C451.506 559.976 444.381 562.152 435.933 562.152C429.106 562.152 422.962 560.659 417.501 557.672C412.125 554.6 407.901 550.291 404.829 544.744C401.842 539.197 400.349 532.797 400.349 525.544C400.349 518.205 401.842 511.763 404.829 506.216C407.816 500.669 411.997 496.403 417.373 493.416C422.749 490.429 428.936 488.936 435.933 488.936C442.674 488.936 448.69 490.387 453.981 493.288C459.357 496.189 463.496 500.328 466.397 505.704C469.384 510.995 470.877 517.096 470.877 524.008ZM452.317 518.888C452.232 514.28 450.568 510.611 447.325 507.88C444.082 505.064 440.114 503.656 435.421 503.656C430.984 503.656 427.229 505.021 424.157 507.752C421.17 510.397 419.336 514.109 418.653 518.888H452.317Z" fill="black"/>
<defs>
<linearGradient id="paint0_linear" x1="238" y1="0" x2="238" y2="420" gradientUnits="userSpaceOnUse">
<stop stop-color="#E6712C"/>
<stop offset="1" stop-color="#E1294F"/>
</linearGradient>
</defs>
</svg>
